<svg width="24" height="24" viewBox="0 0 26 24" fill="none" xmlns="http://www.w3.org/2000/svg">
<path d="M13 5.27121e-06C10.1486 -0.00269971 7.38947 1.03574 5.21692 2.92926C3.04437 4.82279 1.60042 7.44764 1.14379 10.3335C0.687161 13.2194 1.24769 16.1777 2.72495 18.6783C4.20221 21.179 6.49964 23.0586 9.20562 23.9803C9.80562 24.0935 10.0264 23.7121 10.0264 23.3873C10.0264 23.0624 10.0264 22.1249 10.0096 21.0963C6.67122 21.8345 5.96802 19.6444 5.96802 19.6444C5.42082 18.2221 4.63362 17.8456 4.63362 17.8456C3.54642 17.0803 4.71762 17.1074 4.71762 17.1074C5.91762 17.1935 6.55602 18.3747 6.55602 18.3747C7.62642 20.2547 9.36402 19.7109 10.048 19.3983C10.1021 18.7736 10.3729 18.1895 10.8112 17.7521C8.14482 17.4297 5.34402 16.3765 5.34402 11.6616C5.32879 10.4415 5.77126 9.2619 6.58002 8.36666C6.45522 8.0566 6.04482 6.80407 6.69522 5.11105C6.69522 5.11105 7.70322 4.77884 9.99762 6.37097C11.9617 5.82152 14.0335 5.82152 15.9976 6.37097C18.2872 4.77884 19.2928 5.11105 19.2928 5.11105C19.9456 6.80407 19.5328 8.06399 19.4104 8.36666C20.2237 9.25969 20.6699 10.4399 20.656 11.6616C20.656 16.3863 17.848 17.4273 15.1768 17.7324C15.6064 18.1138 15.9904 18.8619 15.9904 20.0111C15.9904 21.6573 15.976 22.9812 15.976 23.3873C15.976 23.7146 16.192 24.0984 16.8016 23.9779C19.5064 23.0546 21.8023 21.1741 23.278 18.6733C24.7538 16.1725 25.313 13.2147 24.8556 10.3297C24.3982 7.44462 22.954 4.82075 20.7817 2.92801C18.6093 1.03527 15.8508 -0.00269505 13 5.27121e-06Z" fill="#A1A1AA"/>
</svg>
