<svg width="25" height="24" viewBox="0 0 25 24" fill="none" xmlns="http://www.w3.org/2000/svg">
<path d="M16.9171 7.18351C16.9219 7.18351 16.9282 7.18351 16.9346 7.18351C17.1011 7.18351 17.2557 7.2353 17.3824 7.32455L17.38 7.32295C17.4725 7.40343 17.5346 7.51658 17.5498 7.64407V7.64646C17.5657 7.74367 17.5745 7.85522 17.5745 7.96917C17.5745 8.02096 17.5729 8.07196 17.5689 8.12295V8.11578C17.3896 10.0034 16.6119 14.5811 16.2167 16.6943C16.0494 17.5891 15.7203 17.8887 15.4015 17.9174C14.7091 17.9819 14.1832 17.46 13.5123 17.0202C12.4621 16.3309 11.8685 15.9022 10.8494 15.2305C9.67087 14.4552 10.435 14.0273 11.1059 13.3309C11.282 13.1477 14.3346 10.3708 14.3944 10.119C14.3976 10.1038 14.3992 10.0871 14.3992 10.0696C14.3992 10.0074 14.376 9.95084 14.3386 9.90781C14.2972 9.88072 14.2454 9.86558 14.1912 9.86558C14.1553 9.86558 14.1211 9.87275 14.0892 9.88471L14.0908 9.88391C13.9856 9.90781 12.3081 11.0164 9.05812 13.2098C8.70354 13.4895 8.25573 13.6664 7.76808 13.6871H7.7633C7.07246 13.6034 6.44537 13.4496 5.85015 13.2305L5.90912 13.2496C5.16171 13.0058 4.56808 12.8775 4.61908 12.4648C4.64617 12.2502 4.94205 12.0305 5.50673 11.8058C8.98508 10.2903 11.3046 9.29135 12.4653 8.80901C13.7458 8.12933 15.2302 7.56996 16.7912 7.20742L16.9163 7.18271L16.9171 7.18351ZM11.9832 0.000244141C5.36808 0.0161804 0.0111084 5.38271 0.0111084 12.0002C0.0111084 18.6273 5.38322 24.0002 12.0111 24.0002C18.639 24.0002 24.0111 18.6281 24.0111 12.0002C24.0111 5.38271 18.6541 0.0161804 12.0406 0.000244141H12.039C12.0204 0.000244141 12.0018 0.000244141 11.9832 0.000244141Z" fill="#A1A1AA"/>
</svg>
