<svg width="24" height="24" viewBox="0 0 24 24" fill="none" xmlns="http://www.w3.org/2000/svg">
<path fill-rule="evenodd" clip-rule="evenodd" d="M1.69817 1.68731C0.0111084 3.37438 0.0111084 6.08967 0.0111084 11.5202V12.4802C0.0111084 17.9108 0.0111084 20.6261 1.69817 22.3132C3.38524 24.0002 6.10053 24.0002 11.5311 24.0002H12.4911C17.9217 24.0002 20.637 24.0002 22.3241 22.3132C24.0111 20.6261 24.0111 17.9108 24.0111 12.4802V11.5202C24.0111 6.08967 24.0111 3.37438 22.3241 1.68731C20.637 0.000244141 17.9217 0.000244141 12.4911 0.000244141H11.5311C6.10053 0.000244141 3.38524 0.000244141 1.69817 1.68731ZM4.06117 7.30032C4.19117 13.5403 7.31115 17.2903 12.7812 17.2903H13.0912V13.7203C15.1012 13.9203 16.6211 15.3903 17.2311 17.2903H20.0712C19.2912 14.4503 17.2411 12.8803 15.9611 12.2803C17.2411 11.5403 19.0411 9.74033 19.4711 7.30032H16.891C16.331 9.28032 14.6712 11.0803 13.0912 11.2503V7.30032H10.5111V14.2203C8.91113 13.8203 6.89118 11.8803 6.80118 7.30032H4.06117Z" fill="#A1A1AA"/>
</svg>
