<svg width="942" height="456" viewBox="0 0 942 456" fill="none" xmlns="http://www.w3.org/2000/svg">
<path d="M759.244 456H833.292V254.504H935.108V189H657.428V254.504H759.244V456Z" fill="#7C3AED"/>
<path fill-rule="evenodd" clip-rule="evenodd" d="M571.663 189L693.059 456H614.383L592.235 404.736H453.979L431.755 456H353.079L474.475 189H571.663ZM566.551 345.284H479.754L523.228 245.006L566.551 345.284Z" fill="#7C3AED"/>
<path d="M117.237 189H43.5449V456H117.237V353.116H253.585V456H327.633V189H253.585V287.612H117.237V189Z" fill="#7C3AED"/>
<path d="M939.379 194.616C939.379 197.352 938.611 199.728 937.075 201.744C935.539 203.76 933.211 205.32 930.091 206.424C926.971 207.48 923.059 208.008 918.355 208.008C913.507 208.008 909.307 207.408 905.755 206.208C902.203 204.96 899.443 203.232 897.475 201.024C895.555 198.768 894.523 196.176 894.379 193.248H903.883C904.171 194.784 904.939 196.152 906.187 197.352C907.483 198.504 909.163 199.392 911.227 200.016C913.339 200.64 915.739 200.952 918.427 200.952C922.315 200.952 925.243 200.496 927.211 199.584C929.179 198.624 930.163 197.184 930.163 195.264C930.163 193.968 929.491 192.984 928.147 192.312C926.851 191.64 924.379 191.136 920.731 190.8L912.739 190.08C908.419 189.696 905.011 188.928 902.515 187.776C900.019 186.576 898.243 185.136 897.187 183.456C896.131 181.728 895.603 179.904 895.603 177.984C895.603 175.2 896.467 172.872 898.195 171C899.923 169.128 902.323 167.712 905.395 166.752C908.467 165.744 912.043 165.24 916.123 165.24C920.347 165.24 924.115 165.84 927.427 167.04C930.739 168.192 933.379 169.824 935.347 171.936C937.315 174 938.419 176.4 938.659 179.136H929.155C928.963 178.032 928.387 176.976 927.427 175.968C926.515 174.912 925.099 174.048 923.179 173.376C921.307 172.656 918.787 172.296 915.619 172.296C912.259 172.296 909.619 172.728 907.699 173.592C905.827 174.456 904.891 175.728 904.891 177.408C904.891 178.464 905.467 179.376 906.619 180.144C907.771 180.864 909.907 181.368 913.027 181.656L923.323 182.592C927.451 182.976 930.667 183.72 932.971 184.824C935.323 185.88 936.979 187.248 937.939 188.928C938.899 190.608 939.379 192.504 939.379 194.616Z" fill="#F1F5F9"/>
<path d="M868.318 208.008C863.566 208.008 859.342 207.12 855.646 205.344C851.95 203.52 849.045 201 846.933 197.784C844.821 194.568 843.766 190.824 843.766 186.552C843.766 182.328 844.75 178.632 846.718 175.464C848.734 172.248 851.493 169.752 854.997 167.976C858.549 166.152 862.606 165.24 867.166 165.24C871.726 165.24 875.662 166.272 878.974 168.336C882.334 170.352 884.926 173.208 886.75 176.904C888.574 180.6 889.486 184.944 889.486 189.936H851.109V182.808H884.805L880.125 185.472C879.981 182.784 879.334 180.48 878.182 178.56C877.078 176.64 875.566 175.176 873.646 174.168C871.774 173.112 869.542 172.584 866.95 172.584C864.214 172.584 861.814 173.136 859.75 174.24C857.734 175.344 856.149 176.904 854.997 178.92C853.845 180.888 853.27 183.24 853.27 185.976C853.27 189 853.942 191.616 855.286 193.824C856.678 196.032 858.621 197.736 861.117 198.936C863.661 200.088 866.661 200.664 870.117 200.664C873.237 200.664 876.429 200.184 879.693 199.224C882.957 198.216 885.837 196.824 888.333 195.048V201.816C885.837 203.736 882.79 205.248 879.19 206.352C875.638 207.456 872.014 208.008 868.318 208.008Z" fill="#F1F5F9"/>
<path d="M802.93 173.448V169.2L811.642 166.968L815.53 155.592H821.002V166.248H839.938V173.448H821.002V191.088C821.002 194.496 821.722 196.896 823.162 198.288C824.65 199.632 827.05 200.304 830.362 200.304C832.474 200.304 834.346 200.088 835.978 199.656C837.61 199.176 839.17 198.504 840.658 197.64V205.344C839.41 205.968 837.634 206.568 835.33 207.144C833.074 207.72 830.746 208.008 828.346 208.008C824.362 208.008 821.146 207.36 818.698 206.064C816.25 204.72 814.45 202.896 813.298 200.592C812.194 198.24 811.642 195.552 811.642 192.528V173.448H802.93Z" fill="#F1F5F9"/>
<path d="M788.882 207L787.298 191.88L789.17 186.624L787.298 181.44L788.882 166.248H798.53L796.37 186.624L798.53 207H788.882ZM791.762 186.624C790.85 190.896 789.338 194.64 787.226 197.856C785.114 201.072 782.498 203.568 779.378 205.344C776.306 207.12 772.874 208.008 769.082 208.008C765.098 208.008 761.57 207.12 758.498 205.344C755.426 203.52 753.026 201 751.298 197.784C749.57 194.568 748.706 190.848 748.706 186.624C748.706 182.352 749.57 178.632 751.298 175.464C753.026 172.248 755.426 169.752 758.498 167.976C761.57 166.152 765.098 165.24 769.082 165.24C772.874 165.24 776.306 166.128 779.378 167.904C782.498 169.68 785.114 172.176 787.226 175.392C789.386 178.56 790.898 182.304 791.762 186.624ZM758.21 186.624C758.21 189.36 758.762 191.784 759.866 193.896C761.018 195.96 762.578 197.592 764.546 198.792C766.514 199.944 768.77 200.52 771.314 200.52C773.906 200.52 776.306 199.944 778.514 198.792C780.722 197.592 782.666 195.96 784.346 193.896C786.074 191.784 787.442 189.36 788.45 186.624C787.442 183.888 786.074 181.488 784.346 179.424C782.666 177.312 780.722 175.68 778.514 174.528C776.306 173.328 773.906 172.728 771.314 172.728C768.77 172.728 766.514 173.328 764.546 174.528C762.578 175.68 761.018 177.312 759.866 179.424C758.762 181.488 758.21 183.888 758.21 186.624Z" fill="#F1F5F9"/>
<path d="M665.743 166.248H675.103L677.551 180.936V207H668.191V179.568L665.743 166.248ZM692.599 165.24C696.199 165.24 699.247 166.008 701.743 167.544C704.287 169.08 706.207 171.288 707.503 174.168C708.847 177 709.519 180.432 709.519 184.464V207H700.159V185.976C700.159 181.704 699.247 178.488 697.423 176.328C695.647 174.12 693.031 173.016 689.575 173.016C687.127 173.016 684.991 173.616 683.167 174.816C681.391 175.968 679.999 177.6 678.991 179.712C678.031 181.824 677.551 184.296 677.551 187.128L674.239 185.328C674.671 181.104 675.703 177.504 677.335 174.528C679.015 171.552 681.151 169.272 683.743 167.688C686.383 166.056 689.335 165.24 692.599 165.24ZM724.495 165.24C728.095 165.24 731.167 166.008 733.711 167.544C736.255 169.08 738.175 171.288 739.471 174.168C740.815 177 741.487 180.432 741.487 184.464V207H732.127V185.976C732.127 181.704 731.215 178.488 729.391 176.328C727.615 174.12 724.999 173.016 721.543 173.016C719.095 173.016 716.959 173.616 715.135 174.816C713.359 175.968 711.967 177.6 710.959 179.712C709.999 181.824 709.519 184.296 709.519 187.128L706.207 185.328C706.639 181.104 707.671 177.504 709.303 174.528C710.983 171.552 713.119 169.272 715.711 167.688C718.351 166.056 721.279 165.24 724.495 165.24Z" fill="#F1F5F9"/>
<path d="M582.563 166.248H591.923L594.371 180.936V207H585.011V179.568L582.563 166.248ZM609.419 165.24C613.019 165.24 616.067 166.008 618.563 167.544C621.107 169.08 623.027 171.288 624.323 174.168C625.667 177 626.339 180.432 626.339 184.464V207H616.979V185.976C616.979 181.704 616.067 178.488 614.243 176.328C612.467 174.12 609.851 173.016 606.395 173.016C603.947 173.016 601.811 173.616 599.987 174.816C598.211 175.968 596.819 177.6 595.811 179.712C594.851 181.824 594.371 184.296 594.371 187.128L591.059 185.328C591.491 181.104 592.523 177.504 594.155 174.528C595.835 171.552 597.971 169.272 600.563 167.688C603.203 166.056 606.155 165.24 609.419 165.24ZM641.315 165.24C644.915 165.24 647.987 166.008 650.531 167.544C653.075 169.08 654.995 171.288 656.291 174.168C657.635 177 658.307 180.432 658.307 184.464V207H648.947V185.976C648.947 181.704 648.035 178.488 646.211 176.328C644.435 174.12 641.819 173.016 638.363 173.016C635.915 173.016 633.779 173.616 631.955 174.816C630.179 175.968 628.787 177.6 627.779 179.712C626.819 181.824 626.339 184.296 626.339 187.128L623.027 185.328C623.459 181.104 624.491 177.504 626.123 174.528C627.803 171.552 629.939 169.272 632.531 167.688C635.171 166.056 638.099 165.24 641.315 165.24Z" fill="#F1F5F9"/>
<path d="M565.851 207L564.267 191.88L566.139 186.624L564.267 181.44L565.851 166.248H575.499L573.339 186.624L575.499 207H565.851ZM568.731 186.624C567.819 190.896 566.307 194.64 564.195 197.856C562.083 201.072 559.467 203.568 556.347 205.344C553.275 207.12 549.843 208.008 546.051 208.008C542.067 208.008 538.539 207.12 535.467 205.344C532.395 203.52 529.995 201 528.267 197.784C526.539 194.568 525.675 190.848 525.675 186.624C525.675 182.352 526.539 178.632 528.267 175.464C529.995 172.248 532.395 169.752 535.467 167.976C538.539 166.152 542.067 165.24 546.051 165.24C549.843 165.24 553.275 166.128 556.347 167.904C559.467 169.68 562.083 172.176 564.195 175.392C566.355 178.56 567.867 182.304 568.731 186.624ZM535.179 186.624C535.179 189.36 535.731 191.784 536.835 193.896C537.987 195.96 539.547 197.592 541.515 198.792C543.483 199.944 545.739 200.52 548.283 200.52C550.875 200.52 553.275 199.944 555.483 198.792C557.691 197.592 559.635 195.96 561.315 193.896C563.043 191.784 564.411 189.36 565.419 186.624C564.411 183.888 563.043 181.488 561.315 179.424C559.635 177.312 557.691 175.68 555.483 174.528C553.275 173.328 550.875 172.728 548.283 172.728C545.739 172.728 543.483 173.328 541.515 174.528C539.547 175.68 537.987 177.312 536.835 179.424C535.731 181.488 535.179 183.888 535.179 186.624Z" fill="#F1F5F9"/>
<path d="M498.966 208.008C494.214 208.008 489.99 207.12 486.294 205.344C482.598 203.52 479.694 201 477.582 197.784C475.47 194.568 474.414 190.824 474.414 186.552C474.414 182.328 475.398 178.632 477.366 175.464C479.382 172.248 482.142 169.752 485.646 167.976C489.198 166.152 493.254 165.24 497.814 165.24C502.374 165.24 506.31 166.272 509.622 168.336C512.982 170.352 515.574 173.208 517.398 176.904C519.222 180.6 520.134 184.944 520.134 189.936H481.758V182.808H515.454L510.774 185.472C510.63 182.784 509.982 180.48 508.83 178.56C507.726 176.64 506.214 175.176 504.294 174.168C502.422 173.112 500.19 172.584 497.598 172.584C494.862 172.584 492.462 173.136 490.398 174.24C488.382 175.344 486.798 176.904 485.646 178.92C484.494 180.888 483.918 183.24 483.918 185.976C483.918 189 484.59 191.616 485.934 193.824C487.326 196.032 489.27 197.736 491.766 198.936C494.31 200.088 497.31 200.664 500.766 200.664C503.886 200.664 507.078 200.184 510.342 199.224C513.606 198.216 516.486 196.824 518.982 195.048V201.816C516.486 203.736 513.438 205.248 509.838 206.352C506.286 207.456 502.662 208.008 498.966 208.008Z" fill="#F1F5F9"/>
<path d="M451.769 157.392H461.273V207H451.769V157.392ZM429.449 153H483.593V161.352H429.449V153Z" fill="#F1F5F9"/>
<path d="M891.516 94.248H900.876L903.324 108.936V135H893.964V107.568L891.516 94.248ZM919.524 93.24C923.364 93.24 926.628 94.008 929.316 95.544C932.004 97.08 934.044 99.288 935.436 102.168C936.876 105 937.596 108.432 937.596 112.464V135H928.236V113.976C928.236 109.704 927.228 106.488 925.212 104.328C923.244 102.12 920.34 101.016 916.5 101.016C913.86 101.016 911.532 101.616 909.516 102.816C907.548 103.968 906.012 105.6 904.908 107.712C903.852 109.824 903.324 112.296 903.324 115.128L900.012 113.328C900.444 109.104 901.548 105.504 903.324 102.528C905.1 99.552 907.38 97.272 910.164 95.688C912.948 94.056 916.068 93.24 919.524 93.24Z" fill="#F1F5F9"/>
<path d="M861.012 136.008C856.068 136.008 851.724 135.12 847.98 133.344C844.284 131.52 841.38 129 839.268 125.784C837.204 122.568 836.172 118.848 836.172 114.624C836.172 110.352 837.204 106.632 839.268 103.464C841.38 100.248 844.284 97.752 847.98 95.976C851.724 94.152 856.068 93.24 861.012 93.24C865.956 93.24 870.276 94.152 873.972 95.976C877.716 97.752 880.62 100.248 882.684 103.464C884.796 106.632 885.852 110.352 885.852 114.624C885.852 118.848 884.796 122.568 882.684 125.784C880.62 129 877.716 131.52 873.972 133.344C870.276 135.12 865.956 136.008 861.012 136.008ZM861.012 128.664C864.18 128.664 866.892 128.088 869.148 126.936C871.452 125.784 873.228 124.176 874.476 122.112C875.724 120 876.348 117.504 876.348 114.624C876.348 111.744 875.724 109.272 874.476 107.208C873.228 105.096 871.452 103.464 869.148 102.312C866.892 101.16 864.18 100.584 861.012 100.584C857.892 100.584 855.18 101.16 852.876 102.312C850.572 103.464 848.796 105.096 847.548 107.208C846.3 109.272 845.676 111.744 845.676 114.624C845.676 117.504 846.3 120 847.548 122.112C848.796 124.176 850.572 125.784 852.876 126.936C855.18 128.088 857.892 128.664 861.012 128.664Z" fill="#F1F5F9"/>
<path d="M819.21 93.96L823.89 94.824L828.57 93.96V135H819.21V93.96ZM823.89 88.848C822.114 88.848 820.65 88.368 819.498 87.408C818.346 86.4 817.77 85.104 817.77 83.52C817.77 81.936 818.346 80.664 819.498 79.704C820.65 78.696 822.114 78.192 823.89 78.192C825.714 78.192 827.178 78.696 828.282 79.704C829.434 80.664 830.01 81.936 830.01 83.52C830.01 85.104 829.434 86.4 828.282 87.408C827.178 88.368 825.714 88.848 823.89 88.848Z" fill="#F1F5F9"/>
<path d="M774.665 101.448V97.2L783.377 94.968L787.265 83.592H792.737V94.248H811.673V101.448H792.737V119.088C792.737 122.496 793.457 124.896 794.897 126.288C796.385 127.632 798.785 128.304 802.097 128.304C804.209 128.304 806.081 128.088 807.713 127.656C809.345 127.176 810.905 126.504 812.393 125.64V133.344C811.145 133.968 809.369 134.568 807.065 135.144C804.809 135.72 802.481 136.008 800.081 136.008C796.097 136.008 792.881 135.36 790.433 134.064C787.985 132.72 786.185 130.896 785.033 128.592C783.929 126.24 783.377 123.552 783.377 120.528V101.448H774.665Z" fill="#F1F5F9"/>
<path d="M760.617 135L759.033 119.88L760.905 114.624L759.033 109.44L760.617 94.248H770.265L768.105 114.624L770.265 135H760.617ZM763.497 114.624C762.585 118.896 761.073 122.64 758.961 125.856C756.849 129.072 754.233 131.568 751.113 133.344C748.041 135.12 744.609 136.008 740.817 136.008C736.833 136.008 733.305 135.12 730.233 133.344C727.161 131.52 724.761 129 723.033 125.784C721.305 122.568 720.441 118.848 720.441 114.624C720.441 110.352 721.305 106.632 723.033 103.464C724.761 100.248 727.161 97.752 730.233 95.976C733.305 94.152 736.833 93.24 740.817 93.24C744.609 93.24 748.041 94.128 751.113 95.904C754.233 97.68 756.849 100.176 758.961 103.392C761.121 106.56 762.633 110.304 763.497 114.624ZM729.945 114.624C729.945 117.36 730.497 119.784 731.601 121.896C732.753 123.96 734.313 125.592 736.281 126.792C738.249 127.944 740.505 128.52 743.049 128.52C745.641 128.52 748.041 127.944 750.249 126.792C752.457 125.592 754.401 123.96 756.081 121.896C757.809 119.784 759.177 117.36 760.185 114.624C759.177 111.888 757.809 109.488 756.081 107.424C754.401 105.312 752.457 103.68 750.249 102.528C748.041 101.328 745.641 100.728 743.049 100.728C740.505 100.728 738.249 101.328 736.281 102.528C734.313 103.68 732.753 105.312 731.601 107.424C730.497 109.488 729.945 111.888 729.945 114.624Z" fill="#F1F5F9"/>
<path d="M703.499 124.992V117.792L703.859 116.496V108.648L703.499 107.208V94.248H712.859V124.128C712.859 129.36 711.755 133.728 709.547 137.232C707.339 140.784 704.315 143.448 700.475 145.224C696.635 147 692.219 147.888 687.227 147.888C683.579 147.888 680.219 147.408 677.147 146.448C674.075 145.488 671.099 144.024 668.219 142.056V134.28C671.147 136.584 674.171 138.192 677.291 139.104C680.411 140.064 683.531 140.544 686.651 140.544C692.123 140.544 696.299 139.2 699.179 136.512C702.059 133.824 703.499 129.984 703.499 124.992ZM683.915 131.832C680.171 131.832 676.811 131.04 673.835 129.456C670.859 127.824 668.507 125.568 666.779 122.688C665.051 119.808 664.187 116.424 664.187 112.536C664.187 108.648 665.051 105.264 666.779 102.384C668.507 99.504 670.859 97.272 673.835 95.688C676.811 94.056 680.171 93.24 683.915 93.24C686.699 93.24 689.267 93.672 691.619 94.536C694.019 95.4 696.155 96.552 698.027 97.992C699.947 99.384 701.555 100.944 702.851 102.672C704.195 104.352 705.227 106.08 705.947 107.856C706.667 109.584 707.027 111.168 707.027 112.608C707.027 114.48 706.475 116.544 705.371 118.8C704.267 121.008 702.683 123.096 700.619 125.064C698.603 127.032 696.179 128.664 693.347 129.96C690.515 131.208 687.371 131.832 683.915 131.832ZM686.795 124.92C690.203 124.92 693.323 123.936 696.155 121.968C699.035 120 701.603 116.856 703.859 112.536C701.603 108.12 699.035 104.952 696.155 103.032C693.323 101.064 690.203 100.08 686.795 100.08C684.011 100.08 681.635 100.608 679.667 101.664C677.699 102.72 676.187 104.184 675.131 106.056C674.123 107.928 673.619 110.088 673.619 112.536C673.619 114.936 674.123 117.072 675.131 118.944C676.187 120.816 677.699 122.28 679.667 123.336C681.635 124.392 684.011 124.92 686.795 124.92Z" fill="#F1F5F9"/>
<path d="M637.622 136.008C632.87 136.008 628.646 135.12 624.95 133.344C621.254 131.52 618.35 129 616.238 125.784C614.126 122.568 613.07 118.824 613.07 114.552C613.07 110.328 614.054 106.632 616.022 103.464C618.038 100.248 620.798 97.752 624.302 95.976C627.854 94.152 631.91 93.24 636.47 93.24C641.03 93.24 644.966 94.272 648.278 96.336C651.638 98.352 654.23 101.208 656.054 104.904C657.878 108.6 658.79 112.944 658.79 117.936H620.414V110.808H654.11L649.43 113.472C649.286 110.784 648.638 108.48 647.486 106.56C646.382 104.64 644.87 103.176 642.95 102.168C641.078 101.112 638.846 100.584 636.254 100.584C633.518 100.584 631.118 101.136 629.054 102.24C627.038 103.344 625.454 104.904 624.302 106.92C623.15 108.888 622.574 111.24 622.574 113.976C622.574 117 623.246 119.616 624.59 121.824C625.982 124.032 627.926 125.736 630.422 126.936C632.966 128.088 635.966 128.664 639.422 128.664C642.542 128.664 645.734 128.184 648.998 127.224C652.262 126.216 655.142 124.824 657.638 123.048V129.816C655.142 131.736 652.094 133.248 648.494 134.352C644.942 135.456 641.318 136.008 637.622 136.008Z" fill="#F1F5F9"/>
<path d="M578.625 94.248H587.985L590.433 109.08V135H581.073V107.28L578.625 94.248ZM611.097 93.96V102.168C610.041 101.88 608.889 101.664 607.641 101.52C606.393 101.376 605.217 101.304 604.113 101.304C601.473 101.304 599.121 101.88 597.057 103.032C594.993 104.184 593.361 105.912 592.161 108.216C591.009 110.472 590.433 113.256 590.433 116.568L588.273 113.904C588.465 111.024 588.945 108.336 589.713 105.84C590.529 103.296 591.633 101.088 593.025 99.216C594.465 97.344 596.217 95.88 598.281 94.824C600.345 93.768 602.745 93.24 605.481 93.24C606.441 93.24 607.425 93.312 608.433 93.456C609.441 93.552 610.329 93.72 611.097 93.96Z" fill="#F1F5F9"/>
<path d="M561.468 124.992V117.792L561.828 116.496V108.648L561.468 107.208V94.248H570.828V124.128C570.828 129.36 569.724 133.728 567.516 137.232C565.308 140.784 562.284 143.448 558.444 145.224C554.604 147 550.188 147.888 545.196 147.888C541.548 147.888 538.188 147.408 535.116 146.448C532.044 145.488 529.068 144.024 526.188 142.056V134.28C529.116 136.584 532.14 138.192 535.26 139.104C538.38 140.064 541.5 140.544 544.62 140.544C550.092 140.544 554.268 139.2 557.148 136.512C560.028 133.824 561.468 129.984 561.468 124.992ZM541.884 131.832C538.14 131.832 534.78 131.04 531.804 129.456C528.828 127.824 526.476 125.568 524.748 122.688C523.02 119.808 522.156 116.424 522.156 112.536C522.156 108.648 523.02 105.264 524.748 102.384C526.476 99.504 528.828 97.272 531.804 95.688C534.78 94.056 538.14 93.24 541.884 93.24C544.668 93.24 547.236 93.672 549.588 94.536C551.988 95.4 554.124 96.552 555.996 97.992C557.916 99.384 559.524 100.944 560.82 102.672C562.164 104.352 563.196 106.08 563.916 107.856C564.636 109.584 564.996 111.168 564.996 112.608C564.996 114.48 564.444 116.544 563.34 118.8C562.236 121.008 560.652 123.096 558.588 125.064C556.572 127.032 554.148 128.664 551.316 129.96C548.484 131.208 545.34 131.832 541.884 131.832ZM544.764 124.92C548.172 124.92 551.292 123.936 554.124 121.968C557.004 120 559.572 116.856 561.828 112.536C559.572 108.12 557.004 104.952 554.124 103.032C551.292 101.064 548.172 100.08 544.764 100.08C541.98 100.08 539.604 100.608 537.636 101.664C535.668 102.72 534.156 104.184 533.1 106.056C532.092 107.928 531.588 110.088 531.588 112.536C531.588 114.936 532.092 117.072 533.1 118.944C534.156 120.816 535.668 122.28 537.636 123.336C539.604 124.392 541.98 124.92 544.764 124.92Z" fill="#F1F5F9"/>
<path d="M505.359 124.992V117.792L505.719 116.496V108.648L505.359 107.208V94.248H514.719V124.128C514.719 129.36 513.615 133.728 511.407 137.232C509.199 140.784 506.175 143.448 502.335 145.224C498.495 147 494.079 147.888 489.087 147.888C485.439 147.888 482.079 147.408 479.007 146.448C475.935 145.488 472.959 144.024 470.079 142.056V134.28C473.007 136.584 476.031 138.192 479.151 139.104C482.271 140.064 485.391 140.544 488.511 140.544C493.983 140.544 498.159 139.2 501.039 136.512C503.919 133.824 505.359 129.984 505.359 124.992ZM485.775 131.832C482.031 131.832 478.671 131.04 475.695 129.456C472.719 127.824 470.367 125.568 468.639 122.688C466.911 119.808 466.047 116.424 466.047 112.536C466.047 108.648 466.911 105.264 468.639 102.384C470.367 99.504 472.719 97.272 475.695 95.688C478.671 94.056 482.031 93.24 485.775 93.24C488.559 93.24 491.127 93.672 493.479 94.536C495.879 95.4 498.015 96.552 499.887 97.992C501.807 99.384 503.415 100.944 504.711 102.672C506.055 104.352 507.087 106.08 507.807 107.856C508.527 109.584 508.887 111.168 508.887 112.608C508.887 114.48 508.335 116.544 507.231 118.8C506.127 121.008 504.543 123.096 502.479 125.064C500.463 127.032 498.039 128.664 495.207 129.96C492.375 131.208 489.231 131.832 485.775 131.832ZM488.655 124.92C492.063 124.92 495.183 123.936 498.015 121.968C500.895 120 503.463 116.856 505.719 112.536C503.463 108.12 500.895 104.952 498.015 103.032C495.183 101.064 492.063 100.08 488.655 100.08C485.871 100.08 483.495 100.608 481.527 101.664C479.559 102.72 478.047 104.184 476.991 106.056C475.983 107.928 475.479 110.088 475.479 112.536C475.479 114.936 475.983 117.072 476.991 118.944C478.047 120.816 479.559 122.28 481.527 123.336C483.495 124.392 485.871 124.92 488.655 124.92Z" fill="#F1F5F9"/>
<path d="M413.912 122.616V114.768H451.64V122.616H413.912ZM438.968 81L464.888 135H454.736L431.192 84.6H434.864L411.32 135H401.168L427.088 81H438.968Z" fill="#F1F5F9"/>
<path d="M939.379 50.616C939.379 53.352 938.611 55.728 937.075 57.744C935.539 59.76 933.211 61.32 930.091 62.424C926.971 63.48 923.059 64.008 918.355 64.008C913.507 64.008 909.307 63.408 905.755 62.208C902.203 60.96 899.443 59.232 897.475 57.024C895.555 54.768 894.523 52.176 894.379 49.248H903.883C904.171 50.784 904.939 52.152 906.187 53.352C907.483 54.504 909.163 55.392 911.227 56.016C913.339 56.64 915.739 56.952 918.427 56.952C922.315 56.952 925.243 56.496 927.211 55.584C929.179 54.624 930.163 53.184 930.163 51.264C930.163 49.968 929.491 48.984 928.147 48.312C926.851 47.64 924.379 47.136 920.731 46.8L912.739 46.08C908.419 45.696 905.011 44.928 902.515 43.776C900.019 42.576 898.243 41.136 897.187 39.456C896.131 37.728 895.603 35.904 895.603 33.984C895.603 31.2 896.467 28.872 898.195 27C899.923 25.128 902.323 23.712 905.395 22.752C908.467 21.744 912.043 21.24 916.123 21.24C920.347 21.24 924.115 21.84 927.427 23.04C930.739 24.192 933.379 25.824 935.347 27.936C937.315 30 938.419 32.4 938.659 35.136H929.155C928.963 34.032 928.387 32.976 927.427 31.968C926.515 30.912 925.099 30.048 923.179 29.376C921.307 28.656 918.787 28.296 915.619 28.296C912.259 28.296 909.619 28.728 907.699 29.592C905.827 30.456 904.891 31.728 904.891 33.408C904.891 34.464 905.467 35.376 906.619 36.144C907.771 36.864 909.907 37.368 913.027 37.656L923.323 38.592C927.451 38.976 930.667 39.72 932.971 40.824C935.323 41.88 936.979 43.248 937.939 44.928C938.899 46.608 939.379 48.504 939.379 50.616Z" fill="#F1F5F9"/>
<path d="M841.735 22.248H851.095L853.543 36.936V63H844.183V35.568L841.735 22.248ZM869.743 21.24C873.583 21.24 876.847 22.008 879.535 23.544C882.223 25.08 884.263 27.288 885.655 30.168C887.095 33 887.815 36.432 887.815 40.464V63H878.455V41.976C878.455 37.704 877.447 34.488 875.431 32.328C873.463 30.12 870.559 29.016 866.719 29.016C864.079 29.016 861.751 29.616 859.735 30.816C857.767 31.968 856.231 33.6 855.127 35.712C854.071 37.824 853.543 40.296 853.543 43.128L850.231 41.328C850.663 37.104 851.767 33.504 853.543 30.528C855.319 27.552 857.599 25.272 860.383 23.688C863.167 22.056 866.287 21.24 869.743 21.24Z" fill="#F1F5F9"/>
<path d="M811.23 64.008C806.286 64.008 801.943 63.12 798.199 61.344C794.503 59.52 791.599 57 789.487 53.784C787.423 50.568 786.391 46.848 786.391 42.624C786.391 38.352 787.423 34.632 789.487 31.464C791.599 28.248 794.503 25.752 798.199 23.976C801.943 22.152 806.286 21.24 811.23 21.24C816.174 21.24 820.494 22.152 824.19 23.976C827.934 25.752 830.838 28.248 832.902 31.464C835.014 34.632 836.07 38.352 836.07 42.624C836.07 46.848 835.014 50.568 832.902 53.784C830.838 57 827.934 59.52 824.19 61.344C820.494 63.12 816.174 64.008 811.23 64.008ZM811.23 56.664C814.398 56.664 817.111 56.088 819.367 54.936C821.671 53.784 823.446 52.176 824.694 50.112C825.942 48 826.566 45.504 826.566 42.624C826.566 39.744 825.942 37.272 824.694 35.208C823.446 33.096 821.671 31.464 819.367 30.312C817.111 29.16 814.398 28.584 811.23 28.584C808.11 28.584 805.399 29.16 803.095 30.312C800.791 31.464 799.015 33.096 797.767 35.208C796.519 37.272 795.895 39.744 795.895 42.624C795.895 45.504 796.519 48 797.767 50.112C799.015 52.176 800.791 53.784 803.095 54.936C805.399 56.088 808.11 56.664 811.23 56.664Z" fill="#F1F5F9"/>
<path d="M735.679 7.56H745.039V63H735.679V7.56ZM761.239 21.24C765.079 21.24 768.343 22.008 771.031 23.544C773.719 25.08 775.759 27.288 777.151 30.168C778.591 33 779.311 36.432 779.311 40.464V63H769.951V41.976C769.951 37.704 768.943 34.488 766.927 32.328C764.959 30.12 762.055 29.016 758.215 29.016C755.575 29.016 753.247 29.616 751.231 30.816C749.263 31.968 747.727 33.6 746.623 35.712C745.567 37.824 745.039 40.296 745.039 43.128L741.727 41.328C742.159 37.104 743.263 33.504 745.039 30.528C746.815 27.552 749.095 25.272 751.879 23.688C754.663 22.056 757.783 21.24 761.239 21.24Z" fill="#F1F5F9"/>
<path d="M691.133 29.448V25.2L699.845 22.968L703.733 11.592H709.205V22.248H728.141V29.448H709.205V47.088C709.205 50.496 709.925 52.896 711.365 54.288C712.853 55.632 715.253 56.304 718.565 56.304C720.677 56.304 722.549 56.088 724.181 55.656C725.813 55.176 727.373 54.504 728.861 53.64V61.344C727.613 61.968 725.837 62.568 723.533 63.144C721.277 63.72 718.949 64.008 716.549 64.008C712.565 64.008 709.349 63.36 706.901 62.064C704.453 60.72 702.653 58.896 701.501 56.592C700.397 54.24 699.845 51.552 699.845 48.528V29.448H691.133Z" fill="#F1F5F9"/>
<path d="M677.085 63L675.501 47.88L677.373 42.624L675.501 37.44L677.085 22.248H686.733L684.573 42.624L686.733 63H677.085ZM679.965 42.624C679.053 46.896 677.541 50.64 675.429 53.856C673.317 57.072 670.701 59.568 667.581 61.344C664.509 63.12 661.077 64.008 657.285 64.008C653.301 64.008 649.773 63.12 646.701 61.344C643.629 59.52 641.229 57 639.501 53.784C637.773 50.568 636.909 46.848 636.909 42.624C636.909 38.352 637.773 34.632 639.501 31.464C641.229 28.248 643.629 25.752 646.701 23.976C649.773 22.152 653.301 21.24 657.285 21.24C661.077 21.24 664.509 22.128 667.581 23.904C670.701 25.68 673.317 28.176 675.429 31.392C677.589 34.56 679.101 38.304 679.965 42.624ZM646.413 42.624C646.413 45.36 646.965 47.784 648.069 49.896C649.221 51.96 650.781 53.592 652.749 54.792C654.717 55.944 656.973 56.52 659.517 56.52C662.109 56.52 664.509 55.944 666.717 54.792C668.925 53.592 670.869 51.96 672.549 49.896C674.277 47.784 675.645 45.36 676.653 42.624C675.645 39.888 674.277 37.488 672.549 35.424C670.869 33.312 668.925 31.68 666.717 30.528C664.509 29.328 662.109 28.728 659.517 28.728C656.973 28.728 654.717 29.328 652.749 30.528C650.781 31.68 649.221 33.312 648.069 35.424C646.965 37.488 646.413 39.888 646.413 42.624Z" fill="#F1F5F9"/>
<path d="M600.898 54.864L598.162 53.856L624.082 22.248H634.882L600.25 63H591.538V7.56H600.898V54.864ZM612.49 42.84L619.042 36.936L636.106 63H625.09L612.49 42.84Z" fill="#F1F5F9"/>
<path d="M584.437 46.944C583.957 50.304 582.637 53.28 580.477 55.872C578.317 58.416 575.557 60.408 572.197 61.848C568.837 63.288 565.093 64.008 560.965 64.008C556.261 64.008 552.109 63.12 548.509 61.344C544.957 59.52 542.173 57 540.157 53.784C538.141 50.568 537.133 46.848 537.133 42.624C537.133 38.4 538.141 34.68 540.157 31.464C542.173 28.248 544.957 25.752 548.509 23.976C552.109 22.152 556.261 21.24 560.965 21.24C565.093 21.24 568.837 21.96 572.197 23.4C575.557 24.84 578.317 26.856 580.477 29.448C582.637 31.992 583.957 34.968 584.437 38.376H575.005C574.333 35.304 572.725 32.904 570.181 31.176C567.637 29.448 564.565 28.584 560.965 28.584C558.085 28.584 555.565 29.16 553.405 30.312C551.245 31.416 549.565 33.024 548.365 35.136C547.213 37.2 546.637 39.696 546.637 42.624C546.637 45.504 547.213 48 548.365 50.112C549.565 52.224 551.245 53.856 553.405 55.008C555.565 56.112 558.085 56.664 560.965 56.664C564.613 56.664 567.709 55.776 570.253 54C572.797 52.224 574.381 49.872 575.005 46.944H584.437Z" fill="#F1F5F9"/>
<path d="M520.781 63L519.197 47.88L521.069 42.624L519.197 37.44L520.781 22.248H530.429L528.269 42.624L530.429 63H520.781ZM523.661 42.624C522.749 46.896 521.237 50.64 519.125 53.856C517.013 57.072 514.397 59.568 511.277 61.344C508.205 63.12 504.773 64.008 500.981 64.008C496.997 64.008 493.469 63.12 490.397 61.344C487.325 59.52 484.925 57 483.197 53.784C481.469 50.568 480.605 46.848 480.605 42.624C480.605 38.352 481.469 34.632 483.197 31.464C484.925 28.248 487.325 25.752 490.397 23.976C493.469 22.152 496.997 21.24 500.981 21.24C504.773 21.24 508.205 22.128 511.277 23.904C514.397 25.68 517.013 28.176 519.125 31.392C521.285 34.56 522.797 38.304 523.661 42.624ZM490.109 42.624C490.109 45.36 490.661 47.784 491.765 49.896C492.917 51.96 494.477 53.592 496.445 54.792C498.413 55.944 500.669 56.52 503.213 56.52C505.805 56.52 508.205 55.944 510.413 54.792C512.621 53.592 514.565 51.96 516.245 49.896C517.973 47.784 519.341 45.36 520.349 42.624C519.341 39.888 517.973 37.488 516.245 35.424C514.565 33.312 512.621 31.68 510.413 30.528C508.205 29.328 505.805 28.728 503.213 28.728C500.669 28.728 498.413 29.328 496.445 30.528C494.477 31.68 492.917 33.312 491.765 35.424C490.661 37.488 490.109 39.888 490.109 42.624Z" fill="#F1F5F9"/>
<path d="M418.806 9H428.31V63H418.806V9ZM462.726 9H472.23V63H462.726V9ZM423.918 31.608H467.262V39.96H423.918V31.608Z" fill="#F1F5F9"/>
</svg>
