<svg width="91" height="27" viewBox="0 0 91 27" fill="none" xmlns="http://www.w3.org/2000/svg">
<path d="M0.8325 -2.14577e-06H8.2845V27H0.8325V-2.14577e-06ZM22.0725 -2.14577e-06H29.5605V27H22.0725V-2.14577e-06ZM5.0085 9.972H25.1685V16.596H5.0085V9.972ZM39.8737 21.816V15.804H58.4857V21.816H39.8737ZM54.2377 -2.14577e-06L66.5137 27H58.5577L48.2617 3.168H50.4217L40.0897 27H32.1337L44.4097 -2.14577e-06H54.2377ZM73.2066 3.276H80.6946V27H73.2066V3.276ZM62.9106 -2.14577e-06H90.9906V6.624H62.9106V-2.14577e-06Z" fill="#7C3AED"/>
</svg>
