<svg width="960" height="483" viewBox="0 0 960 483" fill="none" xmlns="http://www.w3.org/2000/svg">
<path d="M767.815 482.974H847.565V265.961H957.222V195.412H658.158V265.961H767.815V482.974Z" fill="#7C3AED"/>
<path fill-rule="evenodd" clip-rule="evenodd" d="M565.788 195.412L696.532 482.974H611.798L587.945 427.762H439.042L415.106 482.974H330.371L461.115 195.412H565.788ZM560.282 363.732H466.801L513.623 255.731L560.282 363.732Z" fill="#7C3AED"/>
<path d="M76.3673 195.412H-2.99969V482.974H76.3673V372.167H223.215V482.974H302.966V195.412H223.215V301.619H76.3673V195.412Z" fill="#7C3AED"/>
<path d="M961.821 201.461C961.821 204.408 960.994 206.967 959.34 209.138C957.686 211.309 955.178 212.989 951.818 214.178C948.458 215.316 944.245 215.884 939.178 215.884C933.957 215.884 929.434 215.238 925.608 213.946C921.782 212.602 918.81 210.74 916.69 208.362C914.622 205.933 913.511 203.141 913.356 199.988H923.592C923.902 201.642 924.729 203.115 926.073 204.408C927.469 205.648 929.278 206.605 931.501 207.277C933.776 207.949 936.361 208.285 939.256 208.285C943.443 208.285 946.597 207.794 948.716 206.812C950.836 205.778 951.896 204.227 951.896 202.159C951.896 200.763 951.172 199.703 949.724 198.98C948.329 198.256 945.666 197.713 941.737 197.351L933.13 196.576C928.477 196.162 924.807 195.335 922.118 194.094C919.43 192.802 917.518 191.251 916.38 189.442C915.243 187.58 914.674 185.616 914.674 183.548C914.674 180.55 915.605 178.042 917.466 176.026C919.327 174.01 921.912 172.485 925.22 171.451C928.529 170.366 932.38 169.823 936.774 169.823C941.324 169.823 945.382 170.469 948.949 171.761C952.516 173.002 955.359 174.76 957.479 177.034C959.598 179.257 960.787 181.842 961.046 184.789H950.81C950.603 183.6 949.983 182.463 948.949 181.377C947.967 180.24 946.442 179.309 944.374 178.585C942.358 177.81 939.644 177.422 936.232 177.422C932.613 177.422 929.77 177.887 927.702 178.818C925.686 179.748 924.677 181.118 924.677 182.928C924.677 184.065 925.298 185.047 926.539 185.874C927.779 186.65 930.08 187.193 933.44 187.503L944.529 188.511C948.975 188.925 952.438 189.726 954.92 190.915C957.453 192.052 959.237 193.526 960.27 195.335C961.304 197.144 961.821 199.186 961.821 201.461Z" fill="#F1F5F9"/>
<path d="M885.288 215.884C880.17 215.884 875.621 214.928 871.64 213.015C867.659 211.051 864.532 208.337 862.257 204.873C859.982 201.409 858.845 197.377 858.845 192.776C858.845 188.227 859.905 184.246 862.025 180.834C864.196 177.37 867.168 174.682 870.942 172.769C874.768 170.805 879.136 169.823 884.047 169.823C888.958 169.823 893.197 170.934 896.764 173.157C900.383 175.328 903.175 178.404 905.139 182.385C907.104 186.366 908.086 191.044 908.086 196.421H866.755V188.744H903.046L898.005 191.613C897.85 188.718 897.152 186.236 895.912 184.168C894.722 182.101 893.094 180.524 891.026 179.438C889.01 178.301 886.606 177.732 883.815 177.732C880.868 177.732 878.283 178.327 876.06 179.516C873.889 180.705 872.183 182.385 870.942 184.556C869.701 186.676 869.081 189.209 869.081 192.156C869.081 195.412 869.805 198.23 871.252 200.608C872.752 202.986 874.845 204.821 877.533 206.114C880.273 207.354 883.504 207.975 887.226 207.975C890.587 207.975 894.025 207.458 897.54 206.424C901.055 205.338 904.157 203.839 906.845 201.926V209.215C904.157 211.283 900.874 212.912 896.997 214.101C893.172 215.29 889.268 215.884 885.288 215.884Z" fill="#F1F5F9"/>
<path d="M814.865 178.663V174.088L824.248 171.684L828.435 159.432H834.329V170.908H854.723V178.663H834.329V197.661C834.329 201.332 835.104 203.917 836.655 205.416C838.258 206.863 840.843 207.587 844.41 207.587C846.684 207.587 848.7 207.354 850.458 206.889C852.216 206.372 853.896 205.648 855.499 204.718V213.015C854.154 213.687 852.242 214.333 849.76 214.954C847.33 215.574 844.823 215.884 842.238 215.884C837.948 215.884 834.484 215.186 831.847 213.791C829.211 212.343 827.272 210.379 826.032 207.897C824.843 205.364 824.248 202.469 824.248 199.212V178.663H814.865Z" fill="#F1F5F9"/>
<path d="M799.735 214.799L798.029 198.514L800.045 192.853L798.029 187.27L799.735 170.908H810.126L807.8 192.853L810.126 214.799H799.735ZM802.837 192.853C801.855 197.454 800.226 201.487 797.952 204.95C795.677 208.414 792.86 211.102 789.499 213.015C786.191 214.928 782.494 215.884 778.41 215.884C774.12 215.884 770.32 214.928 767.011 213.015C763.703 211.051 761.118 208.337 759.257 204.873C757.396 201.409 756.465 197.403 756.465 192.853C756.465 188.253 757.396 184.246 759.257 180.834C761.118 177.37 763.703 174.682 767.011 172.769C770.32 170.805 774.12 169.823 778.41 169.823C782.494 169.823 786.191 170.779 789.499 172.692C792.86 174.605 795.677 177.293 797.952 180.757C800.278 184.168 801.906 188.201 802.837 192.853ZM766.701 192.853C766.701 195.8 767.296 198.411 768.485 200.685C769.725 202.908 771.406 204.666 773.525 205.959C775.645 207.199 778.074 207.82 780.814 207.82C783.606 207.82 786.191 207.199 788.569 205.959C790.947 204.666 793.041 202.908 794.85 200.685C796.711 198.411 798.184 195.8 799.27 192.853C798.184 189.907 796.711 187.322 794.85 185.099C793.041 182.824 790.947 181.067 788.569 179.826C786.191 178.534 783.606 177.887 780.814 177.887C778.074 177.887 775.645 178.534 773.525 179.826C771.406 181.067 769.725 182.824 768.485 185.099C767.296 187.322 766.701 189.907 766.701 192.853Z" fill="#F1F5F9"/>
<path d="M667.113 170.908H677.194L679.83 186.727V214.799H669.749V185.254L667.113 170.908ZM696.037 169.823C699.914 169.823 703.197 170.65 705.885 172.304C708.625 173.958 710.693 176.336 712.089 179.438C713.536 182.488 714.26 186.185 714.26 190.527V214.799H704.179V192.156C704.179 187.555 703.197 184.091 701.233 181.765C699.32 179.387 696.502 178.198 692.78 178.198C690.144 178.198 687.843 178.844 685.879 180.136C683.966 181.377 682.467 183.135 681.381 185.409C680.347 187.684 679.83 190.346 679.83 193.396L676.263 191.458C676.728 186.908 677.84 183.031 679.598 179.826C681.407 176.621 683.707 174.165 686.499 172.459C689.342 170.702 692.522 169.823 696.037 169.823ZM730.389 169.823C734.267 169.823 737.575 170.65 740.315 172.304C743.055 173.958 745.123 176.336 746.519 179.438C747.966 182.488 748.69 186.185 748.69 190.527V214.799H738.609V192.156C738.609 187.555 737.627 184.091 735.662 181.765C733.75 179.387 730.932 178.198 727.21 178.198C724.573 178.198 722.273 178.844 720.309 180.136C718.396 181.377 716.897 183.135 715.811 185.409C714.777 187.684 714.26 190.346 714.26 193.396L710.693 191.458C711.158 186.908 712.27 183.031 714.027 179.826C715.837 176.621 718.137 174.165 720.929 172.459C723.772 170.702 726.926 169.823 730.389 169.823Z" fill="#F1F5F9"/>
<path d="M577.528 170.908H587.608L590.245 186.727V214.799H580.164V185.254L577.528 170.908ZM606.452 169.823C610.329 169.823 613.612 170.65 616.3 172.304C619.04 173.958 621.108 176.336 622.503 179.438C623.951 182.488 624.675 186.185 624.675 190.527V214.799H614.594V192.156C614.594 187.555 613.612 184.091 611.647 181.765C609.734 179.387 606.917 178.198 603.195 178.198C600.558 178.198 598.258 178.844 596.293 180.136C594.381 181.377 592.881 183.135 591.796 185.409C590.762 187.684 590.245 190.346 590.245 193.396L586.678 191.458C587.143 186.908 588.255 183.031 590.012 179.826C591.822 176.621 594.122 174.165 596.914 172.459C599.757 170.702 602.936 169.823 606.452 169.823ZM640.804 169.823C644.681 169.823 647.99 170.65 650.73 172.304C653.47 173.958 655.538 176.336 656.933 179.438C658.381 182.488 659.105 186.185 659.105 190.527V214.799H649.024V192.156C649.024 187.555 648.042 184.091 646.077 181.765C644.164 179.387 641.347 178.198 637.625 178.198C634.988 178.198 632.688 178.844 630.723 180.136C628.81 181.377 627.311 183.135 626.226 185.409C625.192 187.684 624.675 190.346 624.675 193.396L621.108 191.458C621.573 186.908 622.684 183.031 624.442 179.826C626.252 176.621 628.552 174.165 631.344 172.459C634.187 170.702 637.34 169.823 640.804 169.823Z" fill="#F1F5F9"/>
<path d="M559.529 214.799L557.823 198.514L559.839 192.853L557.823 187.27L559.529 170.908H569.92L567.593 192.853L569.92 214.799H559.529ZM562.63 192.853C561.648 197.454 560.02 201.487 557.745 204.95C555.47 208.414 552.653 211.102 549.293 213.015C545.984 214.928 542.288 215.884 538.204 215.884C533.913 215.884 530.113 214.928 526.805 213.015C523.496 211.051 520.911 208.337 519.05 204.873C517.189 201.409 516.259 197.403 516.259 192.853C516.259 188.253 517.189 184.246 519.05 180.834C520.911 177.37 523.496 174.682 526.805 172.769C530.113 170.805 533.913 169.823 538.204 169.823C542.288 169.823 545.984 170.779 549.293 172.692C552.653 174.605 555.47 177.293 557.745 180.757C560.071 184.168 561.7 188.201 562.63 192.853ZM526.495 192.853C526.495 195.8 527.089 198.411 528.278 200.685C529.519 202.908 531.199 204.666 533.318 205.959C535.438 207.199 537.868 207.82 540.608 207.82C543.399 207.82 545.984 207.199 548.362 205.959C550.74 204.666 552.834 202.908 554.643 200.685C556.504 198.411 557.978 195.8 559.063 192.853C557.978 189.907 556.504 187.322 554.643 185.099C552.834 182.824 550.74 181.067 548.362 179.826C545.984 178.534 543.399 177.887 540.608 177.887C537.868 177.887 535.438 178.534 533.318 179.826C531.199 181.067 529.519 182.824 528.278 185.099C527.089 187.322 526.495 189.907 526.495 192.853Z" fill="#F1F5F9"/>
<path d="M487.493 215.884C482.375 215.884 477.826 214.928 473.845 213.015C469.864 211.051 466.737 208.337 464.462 204.873C462.188 201.409 461.05 197.377 461.05 192.776C461.05 188.227 462.11 184.246 464.23 180.834C466.401 177.37 469.373 174.682 473.147 172.769C476.973 170.805 481.341 169.823 486.252 169.823C491.163 169.823 495.402 170.934 498.97 173.157C502.588 175.328 505.38 178.404 507.344 182.385C509.309 186.366 510.291 191.044 510.291 196.421H468.96V188.744H505.251L500.21 191.613C500.055 188.718 499.357 186.236 498.117 184.168C496.928 182.101 495.299 180.524 493.231 179.438C491.215 178.301 488.811 177.732 486.02 177.732C483.073 177.732 480.488 178.327 478.265 179.516C476.094 180.705 474.388 182.385 473.147 184.556C471.906 186.676 471.286 189.209 471.286 192.156C471.286 195.412 472.01 198.23 473.457 200.608C474.957 202.986 477.05 204.821 479.738 206.114C482.478 207.354 485.709 207.975 489.432 207.975C492.792 207.975 496.23 207.458 499.745 206.424C503.26 205.338 506.362 203.839 509.05 201.926V209.215C506.362 211.283 503.079 212.912 499.202 214.101C495.377 215.29 491.474 215.884 487.493 215.884Z" fill="#F1F5F9"/>
<path d="M436.661 161.37H446.897V214.799H436.661V161.37ZM412.622 156.64H470.936V165.635H412.622V156.64Z" fill="#F1F5F9"/>
<path d="M912.427 93.3637H922.508L925.144 109.183V137.254H915.063V107.709L912.427 93.3637ZM942.592 92.2781C946.727 92.2781 950.243 93.1052 953.138 94.7595C956.033 96.4138 958.23 98.7918 959.729 101.894C961.28 104.944 962.055 108.64 962.055 112.983V137.254H951.975V114.611C951.975 110.01 950.889 106.546 948.718 104.22C946.598 101.842 943.471 100.653 939.335 100.653C936.492 100.653 933.984 101.299 931.813 102.592C929.693 103.832 928.039 105.59 926.85 107.865C925.713 110.139 925.144 112.802 925.144 115.852L921.577 113.913C922.042 109.364 923.231 105.487 925.144 102.281C927.057 99.0762 929.513 96.6206 932.511 94.9146C935.509 93.1569 938.87 92.2781 942.592 92.2781Z" fill="#F1F5F9"/>
<path d="M879.573 138.34C874.249 138.34 869.57 137.383 865.538 135.47C861.557 133.506 858.43 130.792 856.155 127.328C853.932 123.865 852.821 119.858 852.821 115.309C852.821 110.708 853.932 106.701 856.155 103.289C858.43 99.8258 861.557 97.1376 865.538 95.2248C869.57 93.2603 874.249 92.2781 879.573 92.2781C884.898 92.2781 889.551 93.2603 893.531 95.2248C897.564 97.1376 900.691 99.8258 902.914 103.289C905.189 106.701 906.326 110.708 906.326 115.309C906.326 119.858 905.189 123.865 902.914 127.328C900.691 130.792 897.564 133.506 893.531 135.47C889.551 137.383 884.898 138.34 879.573 138.34ZM879.573 130.43C882.985 130.43 885.906 129.81 888.336 128.569C890.817 127.328 892.73 125.596 894.074 123.373C895.418 121.099 896.091 118.411 896.091 115.309C896.091 112.207 895.418 109.545 894.074 107.322C892.73 105.047 890.817 103.289 888.336 102.049C885.906 100.808 882.985 100.188 879.573 100.188C876.213 100.188 873.292 100.808 870.811 102.049C868.329 103.289 866.417 105.047 865.073 107.322C863.728 109.545 863.056 112.207 863.056 115.309C863.056 118.411 863.728 121.099 865.073 123.373C866.417 125.596 868.329 127.328 870.811 128.569C873.292 129.81 876.213 130.43 879.573 130.43Z" fill="#F1F5F9"/>
<path d="M834.553 93.0536L839.593 93.9841L844.634 93.0536V137.254H834.553V93.0536ZM839.593 87.5479C837.68 87.5479 836.104 87.031 834.863 85.997C833.622 84.9114 833.002 83.5156 833.002 81.8096C833.002 80.1036 833.622 78.7337 834.863 77.6998C836.104 76.6141 837.68 76.0713 839.593 76.0713C841.558 76.0713 843.134 76.6141 844.323 77.6998C845.564 78.7337 846.184 80.1036 846.184 81.8096C846.184 83.5156 845.564 84.9114 844.323 85.997C843.134 87.031 841.558 87.5479 839.593 87.5479Z" fill="#F1F5F9"/>
<path d="M786.577 101.118V96.5431L795.96 94.1392L800.147 81.8871H806.041V93.3638H826.435V101.118H806.041V120.117C806.041 123.787 806.816 126.372 808.367 127.871C809.969 129.319 812.554 130.042 816.121 130.042C818.396 130.042 820.412 129.81 822.17 129.344C823.927 128.828 825.608 128.104 827.21 127.173V135.47C825.866 136.143 823.953 136.789 821.472 137.409C819.042 138.029 816.535 138.34 813.95 138.34C809.659 138.34 806.196 137.642 803.559 136.246C800.923 134.798 798.984 132.834 797.743 130.353C796.554 127.819 795.96 124.924 795.96 121.668V101.118H786.577Z" fill="#F1F5F9"/>
<path d="M771.447 137.254L769.741 120.97L771.757 115.309L769.741 109.726L771.447 93.3637H781.838L779.512 115.309L781.838 137.254H771.447ZM774.549 115.309C773.566 119.91 771.938 123.942 769.663 127.406C767.389 130.869 764.571 133.558 761.211 135.47C757.902 137.383 754.206 138.34 750.122 138.34C745.831 138.34 742.032 137.383 738.723 135.47C735.414 133.506 732.83 130.792 730.969 127.328C729.108 123.865 728.177 119.858 728.177 115.309C728.177 110.708 729.108 106.701 730.969 103.289C732.83 99.8258 735.414 97.1376 738.723 95.2248C742.032 93.2603 745.831 92.2781 750.122 92.2781C754.206 92.2781 757.902 93.2345 761.211 95.1472C764.571 97.06 767.389 99.7482 769.663 103.212C771.99 106.624 773.618 110.656 774.549 115.309ZM738.413 115.309C738.413 118.256 739.007 120.866 740.196 123.141C741.437 125.364 743.117 127.121 745.237 128.414C747.356 129.655 749.786 130.275 752.526 130.275C755.318 130.275 757.902 129.655 760.28 128.414C762.658 127.121 764.752 125.364 766.562 123.141C768.423 120.866 769.896 118.256 770.982 115.309C769.896 112.362 768.423 109.777 766.562 107.554C764.752 105.28 762.658 103.522 760.28 102.281C757.902 100.989 755.318 100.343 752.526 100.343C749.786 100.343 747.356 100.989 745.237 102.281C743.117 103.522 741.437 105.28 740.196 107.554C739.007 109.777 738.413 112.362 738.413 115.309Z" fill="#F1F5F9"/>
<path d="M709.931 126.475V118.721L710.319 117.325V108.873L709.931 107.322V93.3637H720.012V125.545C720.012 131.18 718.823 135.884 716.445 139.658C714.067 143.483 710.81 146.353 706.674 148.265C702.538 150.178 697.782 151.134 692.406 151.134C688.477 151.134 684.858 150.618 681.55 149.584C678.241 148.55 675.036 146.973 671.934 144.853V136.479C675.088 138.96 678.345 140.692 681.705 141.674C685.065 142.708 688.425 143.225 691.786 143.225C697.679 143.225 702.177 141.777 705.278 138.882C708.38 135.987 709.931 131.852 709.931 126.475ZM688.839 133.842C684.807 133.842 681.188 132.989 677.983 131.283C674.777 129.525 672.244 127.096 670.383 123.994C668.522 120.892 667.592 117.247 667.592 113.06C667.592 108.873 668.522 105.228 670.383 102.126C672.244 99.0245 674.777 96.6206 677.983 94.9146C681.188 93.1569 684.807 92.2781 688.839 92.2781C691.837 92.2781 694.603 92.7434 697.136 93.6739C699.721 94.6044 702.021 95.8451 704.038 97.396C706.106 98.8952 707.837 100.575 709.233 102.436C710.681 104.246 711.792 106.107 712.568 108.02C713.343 109.881 713.731 111.587 713.731 113.138C713.731 115.154 713.136 117.377 711.947 119.806C710.758 122.184 709.052 124.433 706.829 126.553C704.658 128.672 702.047 130.43 698.997 131.826C695.947 133.17 692.561 133.842 688.839 133.842ZM691.941 126.398C695.611 126.398 698.971 125.338 702.021 123.218C705.123 121.099 707.889 117.713 710.319 113.06C707.889 108.304 705.123 104.892 702.021 102.824C698.971 100.705 695.611 99.6448 691.941 99.6448C688.942 99.6448 686.383 100.213 684.264 101.351C682.144 102.488 680.516 104.065 679.378 106.081C678.293 108.097 677.75 110.424 677.75 113.06C677.75 115.645 678.293 117.945 679.378 119.962C680.516 121.978 682.144 123.554 684.264 124.692C686.383 125.829 688.942 126.398 691.941 126.398Z" fill="#F1F5F9"/>
<path d="M638.981 138.34C633.863 138.34 629.314 137.383 625.333 135.47C621.353 133.506 618.225 130.792 615.95 127.328C613.676 123.865 612.538 119.832 612.538 115.231C612.538 110.682 613.598 106.701 615.718 103.289C617.889 99.8258 620.861 97.1376 624.635 95.2248C628.461 93.2603 632.829 92.2781 637.74 92.2781C642.651 92.2781 646.891 93.3896 650.458 95.6125C654.076 97.7838 656.868 100.86 658.832 104.84C660.797 108.821 661.779 113.499 661.779 118.876H620.448V111.199H656.739L651.698 114.068C651.543 111.173 650.845 108.692 649.605 106.624C648.416 104.556 646.787 102.979 644.719 101.894C642.703 100.756 640.299 100.188 637.508 100.188C634.561 100.188 631.976 100.782 629.753 101.971C627.582 103.16 625.876 104.84 624.635 107.012C623.395 109.131 622.774 111.664 622.774 114.611C622.774 117.868 623.498 120.685 624.945 123.063C626.445 125.441 628.538 127.277 631.227 128.569C633.966 129.81 637.198 130.43 640.92 130.43C644.28 130.43 647.718 129.913 651.233 128.879C654.748 127.794 657.85 126.294 660.538 124.382V131.671C657.85 133.739 654.568 135.367 650.69 136.556C646.865 137.745 642.962 138.34 638.981 138.34Z" fill="#F1F5F9"/>
<path d="M575.441 93.3637H585.522L588.158 109.338V137.254H578.077V107.399L575.441 93.3637ZM610.414 93.0535V101.894C609.276 101.583 608.036 101.351 606.691 101.196C605.347 101.041 604.081 100.963 602.892 100.963C600.048 100.963 597.515 101.583 595.292 102.824C593.069 104.065 591.312 105.926 590.019 108.407C588.779 110.837 588.158 113.836 588.158 117.403L585.832 114.533C586.039 111.432 586.556 108.537 587.383 105.848C588.262 103.108 589.451 100.73 590.95 98.7143C592.501 96.6981 594.388 95.1214 596.611 93.9841C598.834 92.8468 601.418 92.2781 604.365 92.2781C605.399 92.2781 606.459 92.3556 607.544 92.5107C608.63 92.6141 609.586 92.7951 610.414 93.0535Z" fill="#F1F5F9"/>
<path d="M556.962 126.475V118.721L557.35 117.325V108.873L556.962 107.322V93.3637H567.043V125.545C567.043 131.18 565.854 135.884 563.476 139.658C561.098 143.483 557.841 146.353 553.705 148.265C549.57 150.178 544.814 151.134 539.437 151.134C535.508 151.134 531.89 150.618 528.581 149.584C525.272 148.55 522.067 146.973 518.965 144.853V136.479C522.119 138.96 525.376 140.692 528.736 141.674C532.096 142.708 535.457 143.225 538.817 143.225C544.71 143.225 549.208 141.777 552.31 138.882C555.411 135.987 556.962 131.852 556.962 126.475ZM535.87 133.842C531.838 133.842 528.219 132.989 525.014 131.283C521.809 129.525 519.276 127.096 517.415 123.994C515.553 120.892 514.623 117.247 514.623 113.06C514.623 108.873 515.553 105.228 517.415 102.126C519.276 99.0245 521.809 96.6206 525.014 94.9146C528.219 93.1569 531.838 92.2781 535.87 92.2781C538.869 92.2781 541.634 92.7434 544.167 93.6739C546.752 94.6044 549.053 95.8451 551.069 97.396C553.137 98.8952 554.869 100.575 556.264 102.436C557.712 104.246 558.823 106.107 559.599 108.02C560.374 109.881 560.762 111.587 560.762 113.138C560.762 115.154 560.167 117.377 558.978 119.806C557.789 122.184 556.083 124.433 553.861 126.553C551.689 128.672 549.079 130.43 546.029 131.826C542.978 133.17 539.592 133.842 535.87 133.842ZM538.972 126.398C542.642 126.398 546.003 125.338 549.053 123.218C552.155 121.099 554.92 117.713 557.35 113.06C554.92 108.304 552.155 104.892 549.053 102.824C546.003 100.705 542.642 99.6448 538.972 99.6448C535.974 99.6448 533.415 100.213 531.295 101.351C529.175 102.488 527.547 104.065 526.41 106.081C525.324 108.097 524.781 110.424 524.781 113.06C524.781 115.645 525.324 117.945 526.41 119.962C527.547 121.978 529.175 123.554 531.295 124.692C533.415 125.829 535.974 126.398 538.972 126.398Z" fill="#F1F5F9"/>
<path d="M496.532 126.475V118.721L496.92 117.325V108.873L496.532 107.322V93.3637H506.613V125.545C506.613 131.18 505.424 135.884 503.046 139.658C500.668 143.483 497.411 146.353 493.275 148.265C489.139 150.178 484.383 151.134 479.007 151.134C475.078 151.134 471.459 150.618 468.151 149.584C464.842 148.55 461.637 146.973 458.535 144.853V136.479C461.689 138.96 464.945 140.692 468.306 141.674C471.666 142.708 475.026 143.225 478.387 143.225C484.28 143.225 488.778 141.777 491.879 138.882C494.981 135.987 496.532 131.852 496.532 126.475ZM475.44 133.842C471.407 133.842 467.789 132.989 464.584 131.283C461.378 129.525 458.845 127.096 456.984 123.994C455.123 120.892 454.193 117.247 454.193 113.06C454.193 108.873 455.123 105.228 456.984 102.126C458.845 99.0245 461.378 96.6206 464.584 94.9146C467.789 93.1569 471.407 92.2781 475.44 92.2781C478.438 92.2781 481.204 92.7434 483.737 93.6739C486.322 94.6044 488.622 95.8451 490.639 97.396C492.706 98.8952 494.438 100.575 495.834 102.436C497.282 104.246 498.393 106.107 499.168 108.02C499.944 109.881 500.332 111.587 500.332 113.138C500.332 115.154 499.737 117.377 498.548 119.806C497.359 122.184 495.653 124.433 493.43 126.553C491.259 128.672 488.648 130.43 485.598 131.826C482.548 133.17 479.162 133.842 475.44 133.842ZM478.542 126.398C482.212 126.398 485.572 125.338 488.622 123.218C491.724 121.099 494.49 117.713 496.92 113.06C494.49 108.304 491.724 104.892 488.622 102.824C485.572 100.705 482.212 99.6448 478.542 99.6448C475.543 99.6448 472.984 100.213 470.865 101.351C468.745 102.488 467.117 104.065 465.979 106.081C464.894 108.097 464.351 110.424 464.351 113.06C464.351 115.645 464.894 117.945 465.979 119.962C467.117 121.978 468.745 123.554 470.865 124.692C472.984 125.829 475.543 126.398 478.542 126.398Z" fill="#F1F5F9"/>
<path d="M398.043 123.916V115.464H438.676V123.916H398.043ZM425.029 79.0955L452.945 137.254H442.011L416.654 82.9728H420.609L395.251 137.254H384.318L412.234 79.0955H425.029Z" fill="#F1F5F9"/>
<path d="M961.821 46.3717C961.821 49.3184 960.994 51.8774 959.34 54.0486C957.686 56.2199 955.178 57.9 951.818 59.089C948.458 60.2263 944.245 60.795 939.178 60.795C933.957 60.795 929.434 60.1488 925.608 58.8564C921.782 57.5123 918.81 55.6512 916.69 53.2732C914.622 50.8434 913.511 48.0518 913.356 44.8983H923.592C923.902 46.5526 924.729 48.026 926.073 49.3184C927.469 50.5591 929.278 51.5155 931.501 52.1875C933.776 52.8596 936.361 53.1956 939.256 53.1956C943.443 53.1956 946.597 52.7045 948.716 51.7223C950.836 50.6884 951.896 49.1375 951.896 47.0696C951.896 45.6738 951.172 44.614 949.724 43.8903C948.329 43.1665 945.666 42.6237 941.737 42.2618L933.13 41.4864C928.477 41.0728 924.807 40.2457 922.118 39.005C919.43 37.7125 917.518 36.1617 916.38 34.3523C915.243 32.4912 914.674 30.5267 914.674 28.4589C914.674 25.4605 915.605 22.9532 917.466 20.9371C919.327 18.9209 921.912 17.3958 925.22 16.3619C928.529 15.2763 932.38 14.7335 936.774 14.7335C941.324 14.7335 945.382 15.3797 948.949 16.6721C952.516 17.9128 955.359 19.6705 957.479 21.9451C959.598 24.1681 960.787 26.7529 961.046 29.6996H950.81C950.603 28.5106 949.983 27.3733 948.949 26.2876C947.967 25.1503 946.442 24.2198 944.374 23.496C942.358 22.7206 939.644 22.3329 936.232 22.3329C932.613 22.3329 929.77 22.7981 927.702 23.7287C925.686 24.6592 924.677 26.0292 924.677 27.8385C924.677 28.9758 925.298 29.9581 926.539 30.7852C927.779 31.5607 930.08 32.1035 933.44 32.4137L944.529 33.4217C948.975 33.8353 952.438 34.6366 954.92 35.8256C957.453 36.9629 959.237 38.4363 960.27 40.2457C961.304 42.055 961.821 44.0971 961.821 46.3717Z" fill="#F1F5F9"/>
<path d="M856.658 15.8191H866.739L869.375 31.6382V59.7094H859.294V30.1649L856.658 15.8191ZM886.823 14.7335C890.958 14.7335 894.474 15.5606 897.369 17.2149C900.264 18.8692 902.461 21.2472 903.96 24.349C905.511 27.3991 906.286 31.0954 906.286 35.4379V59.7094H896.206V37.0663C896.206 32.4654 895.12 29.0017 892.949 26.6754C890.829 24.2973 887.702 23.1083 883.566 23.1083C880.723 23.1083 878.215 23.7545 876.044 25.0469C873.924 26.2876 872.27 28.0453 871.081 30.32C869.944 32.5946 869.375 35.257 869.375 38.3071L865.808 36.3684C866.273 31.8192 867.462 27.9419 869.375 24.7367C871.288 21.5316 873.744 19.076 876.742 17.37C879.74 15.6123 883.101 14.7335 886.823 14.7335Z" fill="#F1F5F9"/>
<path d="M823.804 60.795C818.48 60.795 813.801 59.8386 809.769 57.9259C805.788 55.9614 802.661 53.2473 800.386 49.7837C798.163 46.32 797.052 42.3135 797.052 37.7642C797.052 33.1633 798.163 29.1568 800.386 25.7448C802.661 22.2812 805.788 19.5929 809.769 17.6802C813.801 15.7157 818.48 14.7335 823.804 14.7335C829.129 14.7335 833.782 15.7157 837.762 17.6802C841.795 19.5929 844.922 22.2812 847.145 25.7448C849.42 29.1568 850.557 33.1633 850.557 37.7642C850.557 42.3135 849.42 46.32 847.145 49.7837C844.922 53.2473 841.795 55.9614 837.762 57.9259C833.782 59.8386 829.129 60.795 823.804 60.795ZM823.804 52.8854C827.216 52.8854 830.137 52.2651 832.567 51.0244C835.048 49.7837 836.961 48.0518 838.305 45.8289C839.649 43.5542 840.321 40.866 840.321 37.7642C840.321 34.6625 839.649 32.0001 838.305 29.7771C836.961 27.5025 835.048 25.7448 832.567 24.5041C830.137 23.2634 827.216 22.643 823.804 22.643C820.444 22.643 817.523 23.2634 815.042 24.5041C812.56 25.7448 810.648 27.5025 809.304 29.7771C807.959 32.0001 807.287 34.6625 807.287 37.7642C807.287 40.866 807.959 43.5542 809.304 45.8289C810.648 48.0518 812.56 49.7837 815.042 51.0244C817.523 52.2651 820.444 52.8854 823.804 52.8854Z" fill="#F1F5F9"/>
<path d="M742.435 0H752.516V59.7094H742.435V0ZM769.963 14.7335C774.099 14.7335 777.614 15.5606 780.509 17.2149C783.404 18.8692 785.601 21.2472 787.101 24.349C788.651 27.3991 789.427 31.0954 789.427 35.4379V59.7094H779.346V37.0663C779.346 32.4654 778.26 29.0017 776.089 26.6754C773.97 24.2973 770.842 23.1083 766.706 23.1083C763.863 23.1083 761.356 23.7545 759.184 25.0469C757.065 26.2876 755.411 28.0453 754.222 30.32C753.084 32.5946 752.516 35.257 752.516 38.3071L748.949 36.3684C749.414 31.8192 750.603 27.9419 752.516 24.7367C754.428 21.5316 756.884 19.076 759.882 17.37C762.881 15.6123 766.241 14.7335 769.963 14.7335Z" fill="#F1F5F9"/>
<path d="M694.459 23.5736V18.9984L703.842 16.5946L708.029 4.3425H713.923V15.8191H734.317V23.5736H713.923V42.572C713.923 46.2425 714.698 48.8273 716.249 50.3265C717.852 51.774 720.436 52.4977 724.003 52.4977C726.278 52.4977 728.294 52.2651 730.052 51.7998C731.81 51.2829 733.49 50.5591 735.092 49.6286V57.9259C733.748 58.5979 731.835 59.2441 729.354 59.8645C726.924 60.4848 724.417 60.795 721.832 60.795C717.541 60.795 714.078 60.0971 711.441 58.7013C708.805 57.2538 706.866 55.2893 705.625 52.8079C704.436 50.2748 703.842 47.3798 703.842 44.1229V23.5736H694.459Z" fill="#F1F5F9"/>
<path d="M679.329 59.7094L677.623 43.425L679.639 37.7642L677.623 32.181L679.329 15.8191H689.72L687.394 37.7642L689.72 59.7094H679.329ZM682.431 37.7642C681.449 42.3652 679.82 46.3975 677.545 49.8612C675.271 53.3249 672.453 56.0131 669.093 57.9259C665.785 59.8386 662.088 60.795 658.004 60.795C653.713 60.795 649.914 59.8386 646.605 57.9259C643.297 55.9614 640.712 53.2473 638.851 49.7837C636.99 46.32 636.059 42.3135 636.059 37.7642C636.059 33.1633 636.99 29.1568 638.851 25.7448C640.712 22.2812 643.297 19.5929 646.605 17.6802C649.914 15.7157 653.713 14.7335 658.004 14.7335C662.088 14.7335 665.785 15.6899 669.093 17.6026C672.453 19.5154 675.271 22.2036 677.545 25.6673C679.872 29.0792 681.5 33.1116 682.431 37.7642ZM646.295 37.7642C646.295 40.7109 646.889 43.3216 648.078 45.5963C649.319 47.8192 650.999 49.5769 653.119 50.8693C655.238 52.11 657.668 52.7304 660.408 52.7304C663.2 52.7304 665.785 52.11 668.163 50.8693C670.541 49.5769 672.634 47.8192 674.444 45.5963C676.305 43.3216 677.778 40.7109 678.864 37.7642C677.778 34.8175 676.305 32.2327 674.444 30.0098C672.634 27.7351 670.541 25.9775 668.163 24.7367C665.785 23.4443 663.2 22.7981 660.408 22.7981C657.668 22.7981 655.238 23.4443 653.119 24.7367C650.999 25.9775 649.319 27.7351 648.078 30.0098C646.889 32.2327 646.295 34.8175 646.295 37.7642Z" fill="#F1F5F9"/>
<path d="M597.275 50.9468L594.328 49.8612L622.244 15.8191H633.876L596.577 59.7094H587.194V0H597.275V50.9468ZM609.759 37.9969L616.816 31.6382L635.194 59.7094H623.33L609.759 37.9969Z" fill="#F1F5F9"/>
<path d="M579.546 42.4169C579.029 46.0357 577.607 49.2408 575.281 52.0325C572.954 54.7724 569.982 56.9178 566.363 58.4687C562.744 60.0196 558.712 60.795 554.266 60.795C549.2 60.795 544.728 59.8386 540.851 57.9259C537.025 55.9614 534.027 53.2473 531.856 49.7837C529.684 46.32 528.599 42.3135 528.599 37.7642C528.599 33.215 529.684 29.2085 531.856 25.7448C534.027 22.2812 537.025 19.5929 540.851 17.6802C544.728 15.7157 549.2 14.7335 554.266 14.7335C558.712 14.7335 562.744 15.5089 566.363 17.0598C569.982 18.6107 572.954 20.782 575.281 23.5736C577.607 26.3135 579.029 29.5187 579.546 33.1891H569.387C568.663 29.8805 566.932 27.2957 564.192 25.4346C561.452 23.5736 558.143 22.643 554.266 22.643C551.164 22.643 548.45 23.2634 546.124 24.5041C543.797 25.6931 541.988 27.425 540.696 29.6996C539.455 31.9225 538.835 34.6108 538.835 37.7642C538.835 40.866 539.455 43.5542 540.696 45.8289C541.988 48.1035 543.797 49.8612 546.124 51.1019C548.45 52.2909 551.164 52.8854 554.266 52.8854C558.195 52.8854 561.529 51.9291 564.269 50.0163C567.009 48.1035 568.715 45.5704 569.387 42.4169H579.546Z" fill="#F1F5F9"/>
<path d="M510.988 59.7094L509.282 43.425L511.298 37.7642L509.282 32.181L510.988 15.8191H521.379L519.052 37.7642L521.379 59.7094H510.988ZM514.089 37.7642C513.107 42.3652 511.479 46.3975 509.204 49.8612C506.929 53.3249 504.112 56.0131 500.752 57.9259C497.443 59.8386 493.747 60.795 489.663 60.795C485.372 60.795 481.572 59.8386 478.264 57.9259C474.955 55.9614 472.37 53.2473 470.509 49.7837C468.648 46.32 467.718 42.3135 467.718 37.7642C467.718 33.1633 468.648 29.1568 470.509 25.7448C472.37 22.2812 474.955 19.5929 478.264 17.6802C481.572 15.7157 485.372 14.7335 489.663 14.7335C493.747 14.7335 497.443 15.6899 500.752 17.6026C504.112 19.5154 506.929 22.2036 509.204 25.6673C511.53 29.0792 513.159 33.1116 514.089 37.7642ZM477.954 37.7642C477.954 40.7109 478.548 43.3216 479.737 45.5963C480.978 47.8192 482.658 49.5769 484.778 50.8693C486.897 52.11 489.327 52.7304 492.067 52.7304C494.858 52.7304 497.443 52.11 499.821 50.8693C502.199 49.5769 504.293 47.8192 506.102 45.5963C507.963 43.3216 509.437 40.7109 510.522 37.7642C509.437 34.8175 507.963 32.2327 506.102 30.0098C504.293 27.7351 502.199 25.9775 499.821 24.7367C497.443 23.4443 494.858 22.7981 492.067 22.7981C489.327 22.7981 486.897 23.4443 484.778 24.7367C482.658 25.9775 480.978 27.7351 479.737 30.0098C478.548 32.2327 477.954 34.8175 477.954 37.7642Z" fill="#F1F5F9"/>
<path d="M401.16 1.5509H411.395V59.7094H401.16V1.5509ZM448.462 1.5509H458.698V59.7094H448.462V1.5509ZM406.665 25.8999H453.347V34.8951H406.665V25.8999Z" fill="#F1F5F9"/>
</svg>
