<svg width="966" height="483" viewBox="0 0 966 483" fill="none" xmlns="http://www.w3.org/2000/svg">
<path d="M770.814 482.974H850.565V265.961H960.222V195.413H661.158V265.961H770.814V482.974Z" fill="#7C3AED"/>
<path fill-rule="evenodd" clip-rule="evenodd" d="M568.788 195.413L699.532 482.974H614.798L590.945 427.762H442.042L418.106 482.974H333.371L464.115 195.413H568.788ZM563.282 363.732H469.801L516.623 255.731L563.282 363.732Z" fill="#7C3AED"/>
<path d="M79.3672 195.413H0.000244141V482.974H79.3672V372.167H226.215V482.974H305.966V195.413H226.215V301.619H79.3672V195.413Z" fill="#7C3AED"/>
<path d="M964.821 201.461C964.821 204.408 963.994 206.967 962.34 209.138C960.686 211.309 958.178 212.989 954.818 214.178C951.458 215.316 947.245 215.884 942.178 215.884C936.957 215.884 932.434 215.238 928.608 213.946C924.783 212.602 921.81 210.74 919.69 208.362C917.623 205.933 916.511 203.141 916.356 199.988H926.592C926.902 201.642 927.729 203.115 929.073 204.408C930.469 205.648 932.278 206.605 934.501 207.277C936.776 207.949 939.361 208.285 942.256 208.285C946.443 208.285 949.597 207.794 951.716 206.812C953.836 205.778 954.896 204.227 954.896 202.159C954.896 200.763 954.172 199.703 952.724 198.98C951.329 198.256 948.666 197.713 944.737 197.351L936.13 196.576C931.477 196.162 927.807 195.335 925.119 194.094C922.43 192.802 920.518 191.251 919.38 189.442C918.243 187.58 917.674 185.616 917.674 183.548C917.674 180.55 918.605 178.042 920.466 176.026C922.327 174.01 924.912 172.485 928.22 171.451C931.529 170.366 935.38 169.823 939.774 169.823C944.324 169.823 948.382 170.469 951.949 171.761C955.516 173.002 958.359 174.76 960.479 177.034C962.598 179.257 963.787 181.842 964.046 184.789H953.81C953.603 183.6 952.983 182.463 951.949 181.377C950.967 180.24 949.442 179.309 947.374 178.585C945.358 177.81 942.644 177.422 939.232 177.422C935.613 177.422 932.77 177.887 930.702 178.818C928.686 179.748 927.678 181.118 927.678 182.928C927.678 184.065 928.298 185.047 929.539 185.875C930.779 186.65 933.08 187.193 936.44 187.503L947.529 188.511C951.975 188.925 955.439 189.726 957.92 190.915C960.453 192.052 962.237 193.526 963.271 195.335C964.304 197.144 964.821 199.186 964.821 201.461Z" fill="#171717"/>
<path d="M888.288 215.884C883.17 215.884 878.621 214.928 874.64 213.015C870.659 211.051 867.532 208.337 865.257 204.873C862.983 201.409 861.845 197.377 861.845 192.776C861.845 188.227 862.905 184.246 865.025 180.834C867.196 177.37 870.168 174.682 873.942 172.769C877.768 170.805 882.136 169.823 887.047 169.823C891.958 169.823 896.197 170.934 899.765 173.157C903.383 175.328 906.175 178.404 908.139 182.385C910.104 186.366 911.086 191.044 911.086 196.421H869.755V188.744H906.046L901.005 191.613C900.85 188.718 900.152 186.236 898.912 184.169C897.723 182.101 896.094 180.524 894.026 179.438C892.01 178.301 889.606 177.732 886.815 177.732C883.868 177.732 881.283 178.327 879.06 179.516C876.889 180.705 875.183 182.385 873.942 184.556C872.701 186.676 872.081 189.209 872.081 192.156C872.081 195.412 872.805 198.23 874.252 200.608C875.752 202.986 877.845 204.821 880.533 206.114C883.273 207.354 886.504 207.975 890.227 207.975C893.587 207.975 897.025 207.458 900.54 206.424C904.055 205.338 907.157 203.839 909.845 201.926V209.215C907.157 211.283 903.874 212.912 899.997 214.101C896.172 215.29 892.269 215.884 888.288 215.884Z" fill="#171717"/>
<path d="M817.865 178.663V174.088L827.248 171.684L831.436 159.432H837.329V170.908H857.723V178.663H837.329V197.661C837.329 201.332 838.104 203.916 839.655 205.416C841.258 206.863 843.843 207.587 847.41 207.587C849.684 207.587 851.701 207.354 853.458 206.889C855.216 206.372 856.896 205.648 858.499 204.718V213.015C857.155 213.687 855.242 214.333 852.76 214.954C850.331 215.574 847.823 215.884 845.239 215.884C840.948 215.884 837.484 215.186 834.848 213.79C832.211 212.343 830.272 210.378 829.032 207.897C827.843 205.364 827.248 202.469 827.248 199.212V178.663H817.865Z" fill="#171717"/>
<path d="M802.735 214.799L801.029 198.514L803.045 192.854L801.029 187.27L802.735 170.908H813.126L810.8 192.854L813.126 214.799H802.735ZM805.837 192.854C804.855 197.454 803.226 201.487 800.952 204.95C798.677 208.414 795.86 211.102 792.499 213.015C789.191 214.928 785.494 215.884 781.41 215.884C777.12 215.884 773.32 214.928 770.011 213.015C766.703 211.051 764.118 208.337 762.257 204.873C760.396 201.409 759.465 197.403 759.465 192.854C759.465 188.253 760.396 184.246 762.257 180.834C764.118 177.37 766.703 174.682 770.011 172.769C773.32 170.805 777.12 169.823 781.41 169.823C785.494 169.823 789.191 170.779 792.499 172.692C795.86 174.605 798.677 177.293 800.952 180.757C803.278 184.169 804.906 188.201 805.837 192.854ZM769.701 192.854C769.701 195.8 770.296 198.411 771.485 200.686C772.725 202.908 774.406 204.666 776.525 205.959C778.645 207.199 781.074 207.82 783.814 207.82C786.606 207.82 789.191 207.199 791.569 205.959C793.947 204.666 796.041 202.908 797.85 200.686C799.711 198.411 801.184 195.8 802.27 192.854C801.184 189.907 799.711 187.322 797.85 185.099C796.041 182.824 793.947 181.067 791.569 179.826C789.191 178.534 786.606 177.887 783.814 177.887C781.074 177.887 778.645 178.534 776.525 179.826C774.406 181.067 772.725 182.824 771.485 185.099C770.296 187.322 769.701 189.907 769.701 192.854Z" fill="#171717"/>
<path d="M670.113 170.908H680.194L682.83 186.728V214.799H672.749V185.254L670.113 170.908ZM699.037 169.823C702.914 169.823 706.197 170.65 708.885 172.304C711.625 173.958 713.693 176.337 715.089 179.438C716.536 182.488 717.26 186.185 717.26 190.527V214.799H707.179V192.156C707.179 187.555 706.197 184.091 704.232 181.765C702.32 179.387 699.502 178.198 695.78 178.198C693.144 178.198 690.843 178.844 688.879 180.136C686.966 181.377 685.467 183.135 684.381 185.409C683.347 187.684 682.83 190.346 682.83 193.396L679.263 191.458C679.728 186.908 680.84 183.031 682.597 179.826C684.407 176.621 686.707 174.165 689.499 172.459C692.342 170.702 695.522 169.823 699.037 169.823ZM733.389 169.823C737.266 169.823 740.575 170.65 743.315 172.304C746.055 173.958 748.123 176.337 749.519 179.438C750.966 182.488 751.69 186.185 751.69 190.527V214.799H741.609V192.156C741.609 187.555 740.627 184.091 738.662 181.765C736.75 179.387 733.932 178.198 730.21 178.198C727.573 178.198 725.273 178.844 723.308 180.136C721.396 181.377 719.896 183.135 718.811 185.409C717.777 187.684 717.26 190.346 717.26 193.396L713.693 191.458C714.158 186.908 715.27 183.031 717.027 179.826C718.837 176.621 721.137 174.165 723.929 172.459C726.772 170.702 729.926 169.823 733.389 169.823Z" fill="#171717"/>
<path d="M580.528 170.908H590.608L593.245 186.728V214.799H583.164V185.254L580.528 170.908ZM609.452 169.823C613.329 169.823 616.612 170.65 619.3 172.304C622.04 173.958 624.108 176.337 625.503 179.438C626.951 182.488 627.675 186.185 627.675 190.527V214.799H617.594V192.156C617.594 187.555 616.612 184.091 614.647 181.765C612.734 179.387 609.917 178.198 606.195 178.198C603.558 178.198 601.258 178.844 599.293 180.136C597.381 181.377 595.881 183.135 594.796 185.409C593.762 187.684 593.245 190.346 593.245 193.396L589.678 191.458C590.143 186.908 591.255 183.031 593.012 179.826C594.822 176.621 597.122 174.165 599.914 172.459C602.757 170.702 605.936 169.823 609.452 169.823ZM643.804 169.823C647.681 169.823 650.99 170.65 653.73 172.304C656.47 173.958 658.538 176.337 659.933 179.438C661.381 182.488 662.105 186.185 662.105 190.527V214.799H652.024V192.156C652.024 187.555 651.042 184.091 649.077 181.765C647.164 179.387 644.347 178.198 640.625 178.198C637.988 178.198 635.688 178.844 633.723 180.136C631.81 181.377 630.311 183.135 629.226 185.409C628.192 187.684 627.675 190.346 627.675 193.396L624.108 191.458C624.573 186.908 625.684 183.031 627.442 179.826C629.252 176.621 631.552 174.165 634.344 172.459C637.187 170.702 640.34 169.823 643.804 169.823Z" fill="#171717"/>
<path d="M562.529 214.799L560.823 198.514L562.839 192.854L560.823 187.27L562.529 170.908H572.92L570.593 192.854L572.92 214.799H562.529ZM565.63 192.854C564.648 197.454 563.02 201.487 560.745 204.95C558.471 208.414 555.653 211.102 552.293 213.015C548.984 214.928 545.288 215.884 541.204 215.884C536.913 215.884 533.113 214.928 529.805 213.015C526.496 211.051 523.911 208.337 522.05 204.873C520.189 201.409 519.259 197.403 519.259 192.854C519.259 188.253 520.189 184.246 522.05 180.834C523.911 177.37 526.496 174.682 529.805 172.769C533.113 170.805 536.913 169.823 541.204 169.823C545.288 169.823 548.984 170.779 552.293 172.692C555.653 174.605 558.471 177.293 560.745 180.757C563.072 184.169 564.7 188.201 565.63 192.854ZM529.495 192.854C529.495 195.8 530.089 198.411 531.278 200.686C532.519 202.908 534.199 204.666 536.319 205.959C538.438 207.199 540.868 207.82 543.608 207.82C546.399 207.82 548.984 207.199 551.362 205.959C553.74 204.666 555.834 202.908 557.643 200.686C559.504 198.411 560.978 195.8 562.063 192.854C560.978 189.907 559.504 187.322 557.643 185.099C555.834 182.824 553.74 181.067 551.362 179.826C548.984 178.534 546.399 177.887 543.608 177.887C540.868 177.887 538.438 178.534 536.319 179.826C534.199 181.067 532.519 182.824 531.278 185.099C530.089 187.322 529.495 189.907 529.495 192.854Z" fill="#171717"/>
<path d="M490.493 215.884C485.375 215.884 480.826 214.928 476.845 213.015C472.865 211.051 469.737 208.337 467.462 204.873C465.188 201.409 464.05 197.377 464.05 192.776C464.05 188.227 465.11 184.246 467.23 180.834C469.401 177.37 472.373 174.682 476.147 172.769C479.973 170.805 484.341 169.823 489.252 169.823C494.163 169.823 498.403 170.934 501.97 173.157C505.588 175.328 508.38 178.404 510.344 182.385C512.309 186.366 513.291 191.044 513.291 196.421H471.96V188.744H508.251L503.21 191.613C503.055 188.718 502.357 186.236 501.117 184.169C499.928 182.101 498.299 180.524 496.231 179.438C494.215 178.301 491.811 177.732 489.02 177.732C486.073 177.732 483.488 178.327 481.265 179.516C479.094 180.705 477.388 182.385 476.147 184.556C474.907 186.676 474.286 189.209 474.286 192.156C474.286 195.412 475.01 198.23 476.457 200.608C477.957 202.986 480.05 204.821 482.739 206.114C485.478 207.354 488.709 207.975 492.432 207.975C495.792 207.975 499.23 207.458 502.745 206.424C506.26 205.338 509.362 203.839 512.05 201.926V209.215C509.362 211.283 506.079 212.912 502.202 214.101C498.377 215.29 494.474 215.884 490.493 215.884Z" fill="#171717"/>
<path d="M439.661 161.37H449.897V214.799H439.661V161.37ZM415.622 156.64H473.936V165.635H415.622V156.64Z" fill="#171717"/>
<path d="M915.427 93.3639H925.508L928.144 109.183V137.254H918.063V107.71L915.427 93.3639ZM945.592 92.2783C949.727 92.2783 953.243 93.1055 956.138 94.7598C959.033 96.414 961.23 98.7921 962.729 101.894C964.28 104.944 965.055 108.64 965.055 112.983V137.254H954.975V114.611C954.975 110.01 953.889 106.547 951.718 104.22C949.598 101.842 946.47 100.653 942.335 100.653C939.491 100.653 936.984 101.299 934.813 102.592C932.693 103.832 931.039 105.59 929.85 107.865C928.713 110.139 928.144 112.802 928.144 115.852L924.577 113.913C925.042 109.364 926.231 105.487 928.144 102.282C930.057 99.0764 932.512 96.6208 935.511 94.9148C938.509 93.1572 941.869 92.2783 945.592 92.2783Z" fill="#171717"/>
<path d="M882.573 138.34C877.249 138.34 872.57 137.383 868.538 135.471C864.557 133.506 861.43 130.792 859.155 127.329C856.932 123.865 855.821 119.858 855.821 115.309C855.821 110.708 856.932 106.702 859.155 103.29C861.43 99.826 864.557 97.1378 868.538 95.225C872.57 93.2606 877.249 92.2783 882.573 92.2783C887.898 92.2783 892.551 93.2606 896.531 95.225C900.564 97.1378 903.691 99.826 905.914 103.29C908.189 106.702 909.326 110.708 909.326 115.309C909.326 119.858 908.189 123.865 905.914 127.329C903.691 130.792 900.564 133.506 896.531 135.471C892.551 137.383 887.898 138.34 882.573 138.34ZM882.573 130.43C885.985 130.43 888.906 129.81 891.336 128.569C893.817 127.329 895.73 125.597 897.074 123.374C898.418 121.099 899.091 118.411 899.091 115.309C899.091 112.207 898.418 109.545 897.074 107.322C895.73 105.047 893.817 103.29 891.336 102.049C888.906 100.808 885.985 100.188 882.573 100.188C879.213 100.188 876.292 100.808 873.811 102.049C871.329 103.29 869.417 105.047 868.073 107.322C866.728 109.545 866.056 112.207 866.056 115.309C866.056 118.411 866.728 121.099 868.073 123.374C869.417 125.597 871.329 127.329 873.811 128.569C876.292 129.81 879.213 130.43 882.573 130.43Z" fill="#171717"/>
<path d="M837.553 93.0536L842.593 93.9841L847.634 93.0536V137.254H837.553V93.0536ZM842.593 87.5479C840.68 87.5479 839.104 87.0309 837.863 85.997C836.622 84.9114 836.002 83.5156 836.002 81.8096C836.002 80.1036 836.622 78.7337 837.863 77.6997C839.104 76.6141 840.68 76.0713 842.593 76.0713C844.558 76.0713 846.134 76.6141 847.323 77.6997C848.564 78.7337 849.185 80.1036 849.185 81.8096C849.185 83.5156 848.564 84.9114 847.323 85.997C846.134 87.0309 844.558 87.5479 842.593 87.5479Z" fill="#171717"/>
<path d="M789.577 101.118V96.5431L798.96 94.1393L803.147 81.8872H809.04V93.3638H829.435V101.118H809.04V120.117C809.04 123.787 809.816 126.372 811.367 127.871C812.969 129.319 815.554 130.042 819.121 130.042C821.396 130.042 823.412 129.81 825.17 129.345C826.927 128.828 828.607 128.104 830.21 127.173V135.471C828.866 136.143 826.953 136.789 824.472 137.409C822.042 138.03 819.535 138.34 816.95 138.34C812.659 138.34 809.195 137.642 806.559 136.246C803.922 134.799 801.984 132.834 800.743 130.353C799.554 127.819 798.96 124.924 798.96 121.668V101.118H789.577Z" fill="#171717"/>
<path d="M774.447 137.254L772.741 120.97L774.757 115.309L772.741 109.726L774.447 93.3639H784.838L782.512 115.309L784.838 137.254H774.447ZM777.549 115.309C776.566 119.91 774.938 123.942 772.663 127.406C770.389 130.87 767.571 133.558 764.211 135.471C760.902 137.383 757.206 138.34 753.122 138.34C748.831 138.34 745.032 137.383 741.723 135.471C738.414 133.506 735.83 130.792 733.969 127.329C732.108 123.865 731.177 119.858 731.177 115.309C731.177 110.708 732.108 106.702 733.969 103.29C735.83 99.826 738.414 97.1378 741.723 95.225C745.032 93.2606 748.831 92.2783 753.122 92.2783C757.206 92.2783 760.902 93.2347 764.211 95.1475C767.571 97.0602 770.389 99.7485 772.663 103.212C774.99 106.624 776.618 110.656 777.549 115.309ZM741.413 115.309C741.413 118.256 742.007 120.866 743.196 123.141C744.437 125.364 746.117 127.122 748.237 128.414C750.356 129.655 752.786 130.275 755.526 130.275C758.318 130.275 760.902 129.655 763.28 128.414C765.658 127.122 767.752 125.364 769.562 123.141C771.423 120.866 772.896 118.256 773.982 115.309C772.896 112.362 771.423 109.778 769.562 107.555C767.752 105.28 765.658 103.522 763.28 102.282C760.902 100.989 758.318 100.343 755.526 100.343C752.786 100.343 750.356 100.989 748.237 102.282C746.117 103.522 744.437 105.28 743.196 107.555C742.007 109.778 741.413 112.362 741.413 115.309Z" fill="#171717"/>
<path d="M712.931 126.476V118.721L713.319 117.325V108.873L712.931 107.322V93.3639H723.012V125.545C723.012 131.18 721.823 135.884 719.445 139.658C717.067 143.484 713.81 146.353 709.674 148.266C705.539 150.178 700.783 151.135 695.406 151.135C691.477 151.135 687.858 150.618 684.55 149.584C681.241 148.55 678.036 146.973 674.934 144.854V136.479C678.088 138.96 681.345 140.692 684.705 141.674C688.065 142.708 691.425 143.225 694.786 143.225C700.679 143.225 705.177 141.778 708.278 138.883C711.38 135.988 712.931 131.852 712.931 126.476ZM691.839 133.842C687.807 133.842 684.188 132.989 680.983 131.283C677.778 129.526 675.244 127.096 673.383 123.994C671.522 120.892 670.592 117.248 670.592 113.06C670.592 108.873 671.522 105.228 673.383 102.126C675.244 99.0247 677.778 96.6208 680.983 94.9148C684.188 93.1572 687.807 92.2783 691.839 92.2783C694.837 92.2783 697.603 92.7436 700.136 93.6741C702.721 94.6047 705.022 95.8454 707.038 97.3963C709.106 98.8955 710.837 100.576 712.233 102.437C713.681 104.246 714.792 106.107 715.568 108.02C716.343 109.881 716.731 111.587 716.731 113.138C716.731 115.154 716.136 117.377 714.947 119.807C713.758 122.185 712.052 124.433 709.829 126.553C707.658 128.673 705.047 130.43 701.997 131.826C698.947 133.17 695.561 133.842 691.839 133.842ZM694.941 126.398C698.611 126.398 701.972 125.338 705.022 123.219C708.123 121.099 710.889 117.713 713.319 113.06C710.889 108.304 708.123 104.892 705.022 102.824C701.972 100.705 698.611 99.6451 694.941 99.6451C691.942 99.6451 689.383 100.214 687.264 101.351C685.144 102.488 683.516 104.065 682.379 106.081C681.293 108.097 680.75 110.424 680.75 113.06C680.75 115.645 681.293 117.946 682.379 119.962C683.516 121.978 685.144 123.555 687.264 124.692C689.383 125.829 691.942 126.398 694.941 126.398Z" fill="#171717"/>
<path d="M641.981 138.34C636.863 138.34 632.314 137.383 628.333 135.471C624.353 133.506 621.225 130.792 618.95 127.329C616.676 123.865 615.538 119.833 615.538 115.232C615.538 110.682 616.598 106.702 618.718 103.29C620.889 99.826 623.861 97.1378 627.635 95.225C631.461 93.2606 635.829 92.2783 640.74 92.2783C645.651 92.2783 649.891 93.3898 653.458 95.6127C657.076 97.784 659.868 100.86 661.832 104.841C663.797 108.821 664.779 113.5 664.779 118.876H623.448V111.199H659.739L654.698 114.068C654.543 111.173 653.845 108.692 652.605 106.624C651.416 104.556 649.787 102.979 647.719 101.894C645.703 100.757 643.299 100.188 640.508 100.188C637.561 100.188 634.976 100.782 632.753 101.971C630.582 103.16 628.876 104.841 627.635 107.012C626.395 109.131 625.774 111.664 625.774 114.611C625.774 117.868 626.498 120.686 627.945 123.064C629.445 125.442 631.538 127.277 634.227 128.569C636.966 129.81 640.198 130.43 643.92 130.43C647.28 130.43 650.718 129.913 654.233 128.879C657.748 127.794 660.85 126.295 663.538 124.382V131.671C660.85 133.739 657.568 135.367 653.69 136.556C649.865 137.745 645.962 138.34 641.981 138.34Z" fill="#171717"/>
<path d="M578.441 93.3639H588.522L591.158 109.338V137.254H581.077V107.4L578.441 93.3639ZM613.414 93.0538V101.894C612.276 101.584 611.036 101.351 609.691 101.196C608.347 101.041 607.081 100.963 605.892 100.963C603.048 100.963 600.515 101.584 598.292 102.824C596.069 104.065 594.312 105.926 593.019 108.408C591.779 110.837 591.158 113.836 591.158 117.403L588.832 114.534C589.039 111.432 589.556 108.537 590.383 105.849C591.262 103.109 592.451 100.731 593.95 98.7145C595.501 96.6984 597.388 95.1216 599.611 93.9843C601.834 92.847 604.418 92.2783 607.365 92.2783C608.399 92.2783 609.459 92.3559 610.544 92.511C611.63 92.6143 612.586 92.7953 613.414 93.0538Z" fill="#171717"/>
<path d="M559.962 126.476V118.721L560.35 117.325V108.873L559.962 107.322V93.3639H570.043V125.545C570.043 131.18 568.854 135.884 566.476 139.658C564.098 143.484 560.841 146.353 556.706 148.266C552.57 150.178 547.814 151.135 542.437 151.135C538.508 151.135 534.89 150.618 531.581 149.584C528.273 148.55 525.067 146.973 521.966 144.854V136.479C525.119 138.96 528.376 140.692 531.736 141.674C535.096 142.708 538.457 143.225 541.817 143.225C547.71 143.225 552.208 141.778 555.31 138.883C558.412 135.988 559.962 131.852 559.962 126.476ZM538.87 133.842C534.838 133.842 531.219 132.989 528.014 131.283C524.809 129.526 522.276 127.096 520.415 123.994C518.554 120.892 517.623 117.248 517.623 113.06C517.623 108.873 518.554 105.228 520.415 102.126C522.276 99.0247 524.809 96.6208 528.014 94.9148C531.219 93.1572 534.838 92.2783 538.87 92.2783C541.869 92.2783 544.634 92.7436 547.168 93.6741C549.752 94.6047 552.053 95.8454 554.069 97.3963C556.137 98.8955 557.869 100.576 559.265 102.437C560.712 104.246 561.823 106.107 562.599 108.02C563.374 109.881 563.762 111.587 563.762 113.138C563.762 115.154 563.168 117.377 561.979 119.807C560.79 122.185 559.084 124.433 556.861 126.553C554.689 128.673 552.079 130.43 549.029 131.826C545.979 133.17 542.592 133.842 538.87 133.842ZM541.972 126.398C545.643 126.398 549.003 125.338 552.053 123.219C555.155 121.099 557.92 117.713 560.35 113.06C557.92 108.304 555.155 104.892 552.053 102.824C549.003 100.705 545.643 99.6451 541.972 99.6451C538.974 99.6451 536.415 100.214 534.295 101.351C532.176 102.488 530.547 104.065 529.41 106.081C528.324 108.097 527.781 110.424 527.781 113.06C527.781 115.645 528.324 117.946 529.41 119.962C530.547 121.978 532.176 123.555 534.295 124.692C536.415 125.829 538.974 126.398 541.972 126.398Z" fill="#171717"/>
<path d="M499.532 126.476V118.721L499.92 117.325V108.873L499.532 107.322V93.3639H509.613V125.545C509.613 131.18 508.424 135.884 506.046 139.658C503.668 143.484 500.411 146.353 496.275 148.266C492.139 150.178 487.383 151.135 482.007 151.135C478.078 151.135 474.459 150.618 471.151 149.584C467.842 148.55 464.637 146.973 461.535 144.854V136.479C464.689 138.96 467.945 140.692 471.306 141.674C474.666 142.708 478.026 143.225 481.387 143.225C487.28 143.225 491.778 141.778 494.879 138.883C497.981 135.988 499.532 131.852 499.532 126.476ZM478.44 133.842C474.408 133.842 470.789 132.989 467.584 131.283C464.378 129.526 461.845 127.096 459.984 123.994C458.123 120.892 457.193 117.248 457.193 113.06C457.193 108.873 458.123 105.228 459.984 102.126C461.845 99.0247 464.378 96.6208 467.584 94.9148C470.789 93.1572 474.408 92.2783 478.44 92.2783C481.438 92.2783 484.204 92.7436 486.737 93.6741C489.322 94.6047 491.622 95.8454 493.639 97.3963C495.706 98.8955 497.438 100.576 498.834 102.437C500.282 104.246 501.393 106.107 502.169 108.02C502.944 109.881 503.332 111.587 503.332 113.138C503.332 115.154 502.737 117.377 501.548 119.807C500.359 122.185 498.653 124.433 496.43 126.553C494.259 128.673 491.648 130.43 488.598 131.826C485.548 133.17 482.162 133.842 478.44 133.842ZM481.542 126.398C485.212 126.398 488.572 125.338 491.622 123.219C494.724 121.099 497.49 117.713 499.92 113.06C497.49 108.304 494.724 104.892 491.622 102.824C488.572 100.705 485.212 99.6451 481.542 99.6451C478.543 99.6451 475.984 100.214 473.865 101.351C471.745 102.488 470.117 104.065 468.979 106.081C467.894 108.097 467.351 110.424 467.351 113.06C467.351 115.645 467.894 117.946 468.979 119.962C470.117 121.978 471.745 123.555 473.865 124.692C475.984 125.829 478.543 126.398 481.542 126.398Z" fill="#171717"/>
<path d="M401.043 123.917V115.464H441.676V123.917H401.043ZM428.029 79.0957L455.945 137.254H445.011L419.654 82.9729H423.609L398.251 137.254H387.318L415.234 79.0957H428.029Z" fill="#171717"/>
<path d="M964.821 46.3716C964.821 49.3183 963.994 51.8773 962.34 54.0485C960.686 56.2198 958.178 57.8999 954.818 59.0889C951.458 60.2263 947.245 60.7949 942.178 60.7949C936.957 60.7949 932.434 60.1487 928.608 58.8563C924.783 57.5122 921.81 55.6511 919.69 53.2731C917.623 50.8434 916.511 48.0517 916.356 44.8983H926.592C926.902 46.5526 927.729 48.0259 929.073 49.3183C930.469 50.559 932.278 51.5154 934.501 52.1875C936.776 52.8595 939.361 53.1955 942.256 53.1955C946.443 53.1955 949.597 52.7044 951.716 51.7222C953.836 50.6883 954.896 49.1374 954.896 47.0695C954.896 45.6737 954.172 44.6139 952.724 43.8902C951.329 43.1664 948.666 42.6236 944.737 42.2617L936.13 41.4863C931.477 41.0727 927.807 40.2456 925.119 39.0049C922.43 37.7125 920.518 36.1616 919.38 34.3522C918.243 32.4911 917.674 30.5267 917.674 28.4588C917.674 25.4604 918.605 22.9531 920.466 20.937C922.327 18.9208 924.912 17.3958 928.22 16.3618C931.529 15.2762 935.38 14.7334 939.774 14.7334C944.324 14.7334 948.382 15.3796 951.949 16.672C955.516 17.9127 958.359 19.6704 960.479 21.9451C962.598 24.168 963.787 26.7528 964.046 29.6995H953.81C953.603 28.5105 952.983 27.3732 951.949 26.2876C950.967 25.1502 949.442 24.2197 947.374 23.4959C945.358 22.7205 942.644 22.3328 939.232 22.3328C935.613 22.3328 932.77 22.798 930.702 23.7286C928.686 24.6591 927.678 26.0291 927.678 27.8384C927.678 28.9758 928.298 29.958 929.539 30.7851C930.779 31.5606 933.08 32.1034 936.44 32.4136L947.529 33.4217C951.975 33.8352 955.439 34.6365 957.92 35.8255C960.453 36.9629 962.237 38.4362 963.271 40.2456C964.304 42.055 964.821 44.097 964.821 46.3716Z" fill="#171717"/>
<path d="M859.658 15.819H869.739L872.375 31.6381V59.7093H862.294V30.1648L859.658 15.819ZM889.823 14.7334C893.958 14.7334 897.474 15.5605 900.369 17.2148C903.264 18.8691 905.461 21.2472 906.96 24.3489C908.511 27.399 909.286 31.0953 909.286 35.4378V59.7093H899.206V37.0663C899.206 32.4653 898.12 29.0016 895.949 26.6753C893.829 24.2972 890.701 23.1082 886.566 23.1082C883.722 23.1082 881.215 23.7544 879.044 25.0468C876.924 26.2876 875.27 28.0452 874.081 30.3199C872.944 32.5945 872.375 35.2569 872.375 38.307L868.808 36.3684C869.273 31.8191 870.462 27.9418 872.375 24.7367C874.288 21.5315 876.743 19.0759 879.742 17.3699C882.74 15.6122 886.1 14.7334 889.823 14.7334Z" fill="#171717"/>
<path d="M826.804 60.7949C821.48 60.7949 816.801 59.8385 812.769 57.9258C808.788 55.9613 805.661 53.2472 803.386 49.7836C801.163 46.3199 800.052 42.3134 800.052 37.7642C800.052 33.1632 801.163 29.1567 803.386 25.7447C805.661 22.2811 808.788 19.5929 812.769 17.6801C816.801 15.7156 821.48 14.7334 826.804 14.7334C832.129 14.7334 836.782 15.7156 840.762 17.6801C844.795 19.5929 847.922 22.2811 850.145 25.7447C852.42 29.1567 853.557 33.1632 853.557 37.7642C853.557 42.3134 852.42 46.3199 850.145 49.7836C847.922 53.2472 844.795 55.9613 840.762 57.9258C836.782 59.8385 832.129 60.7949 826.804 60.7949ZM826.804 52.8854C830.216 52.8854 833.137 52.265 835.567 51.0243C838.048 49.7836 839.961 48.0517 841.305 45.8288C842.649 43.5542 843.321 40.8659 843.321 37.7642C843.321 34.6624 842.649 32 841.305 29.7771C839.961 27.5024 838.048 25.7447 835.567 24.504C833.137 23.2633 830.216 22.643 826.804 22.643C823.444 22.643 820.523 23.2633 818.042 24.504C815.56 25.7447 813.648 27.5024 812.304 29.7771C810.959 32 810.287 34.6624 810.287 37.7642C810.287 40.8659 810.959 43.5542 812.304 45.8288C813.648 48.0517 815.56 49.7836 818.042 51.0243C820.523 52.265 823.444 52.8854 826.804 52.8854Z" fill="#171717"/>
<path d="M745.435 0H755.516V59.7094H745.435V0ZM772.963 14.7335C777.099 14.7335 780.614 15.5606 783.509 17.2149C786.404 18.8692 788.601 21.2472 790.101 24.349C791.651 27.3991 792.427 31.0954 792.427 35.4379V59.7094H782.346V37.0663C782.346 32.4654 781.26 29.0017 779.089 26.6754C776.97 24.2973 773.842 23.1083 769.706 23.1083C766.863 23.1083 764.356 23.7545 762.184 25.0469C760.065 26.2876 758.411 28.0453 757.222 30.32C756.084 32.5946 755.516 35.257 755.516 38.3071L751.949 36.3684C752.414 31.8192 753.603 27.9419 755.516 24.7367C757.428 21.5316 759.884 19.076 762.882 17.37C765.881 15.6123 769.241 14.7335 772.963 14.7335Z" fill="#171717"/>
<path d="M697.459 23.5734V18.9982L706.842 16.5943L711.029 4.34229H716.923V15.8189H737.317V23.5734H716.923V42.5718C716.923 46.2422 717.698 48.8271 719.249 50.3263C720.852 51.7738 723.436 52.4975 727.004 52.4975C729.278 52.4975 731.294 52.2649 733.052 51.7996C734.81 51.2826 736.49 50.5589 738.092 49.6284V57.9256C736.748 58.5977 734.836 59.2439 732.354 59.8643C729.924 60.4846 727.417 60.7948 724.832 60.7948C720.541 60.7948 717.078 60.0969 714.441 58.7011C711.805 57.2536 709.866 55.2891 708.625 52.8077C707.436 50.2746 706.842 47.3796 706.842 44.1227V23.5734H697.459Z" fill="#171717"/>
<path d="M682.329 59.7093L680.623 43.4249L682.639 37.7642L680.623 32.1809L682.329 15.819H692.72L690.394 37.7642L692.72 59.7093H682.329ZM685.431 37.7642C684.449 42.3651 682.82 46.3975 680.545 49.8611C678.271 53.3248 675.453 56.013 672.093 57.9258C668.785 59.8385 665.088 60.7949 661.004 60.7949C656.713 60.7949 652.914 59.8385 649.605 57.9258C646.297 55.9613 643.712 53.2472 641.851 49.7836C639.99 46.3199 639.059 42.3134 639.059 37.7642C639.059 33.1632 639.99 29.1567 641.851 25.7447C643.712 22.2811 646.297 19.5929 649.605 17.6801C652.914 15.7156 656.713 14.7334 661.004 14.7334C665.088 14.7334 668.785 15.6898 672.093 17.6025C675.453 19.5153 678.271 22.2035 680.545 25.6672C682.872 29.0792 684.5 33.1115 685.431 37.7642ZM649.295 37.7642C649.295 40.7109 649.889 43.3215 651.078 45.5962C652.319 47.8191 653.999 49.5768 656.119 50.8692C658.238 52.1099 660.668 52.7303 663.408 52.7303C666.2 52.7303 668.785 52.1099 671.163 50.8692C673.541 49.5768 675.634 47.8191 677.444 45.5962C679.305 43.3215 680.778 40.7109 681.864 37.7642C680.778 34.8175 679.305 32.2326 677.444 30.0097C675.634 27.7351 673.541 25.9774 671.163 24.7367C668.785 23.4442 666.2 22.798 663.408 22.798C660.668 22.798 658.238 23.4442 656.119 24.7367C653.999 25.9774 652.319 27.7351 651.078 30.0097C649.889 32.2326 649.295 34.8175 649.295 37.7642Z" fill="#171717"/>
<path d="M600.275 50.9468L597.328 49.8612L625.244 15.8191H636.876L599.577 59.7094H590.194V0H600.275V50.9468ZM612.759 37.9969L619.816 31.6382L638.194 59.7094H626.33L612.759 37.9969Z" fill="#171717"/>
<path d="M582.545 42.4168C582.028 46.0356 580.607 49.2408 578.281 52.0324C575.954 54.7723 572.982 56.9177 569.363 58.4686C565.744 60.0195 561.712 60.7949 557.266 60.7949C552.2 60.7949 547.728 59.8385 543.851 57.9258C540.025 55.9613 537.027 53.2472 534.856 49.7836C532.684 46.3199 531.599 42.3134 531.599 37.7642C531.599 33.2149 532.684 29.2084 534.856 25.7447C537.027 22.2811 540.025 19.5929 543.851 17.6801C547.728 15.7156 552.2 14.7334 557.266 14.7334C561.712 14.7334 565.744 15.5088 569.363 17.0597C572.982 18.6106 575.954 20.7819 578.281 23.5735C580.607 26.3134 582.028 29.5186 582.545 33.189H572.387C571.663 29.8805 569.932 27.2956 567.192 25.4346C564.452 23.5735 561.143 22.643 557.266 22.643C554.164 22.643 551.45 23.2633 549.124 24.504C546.797 25.693 544.988 27.4249 543.696 29.6995C542.455 31.9225 541.835 34.6107 541.835 37.7642C541.835 40.8659 542.455 43.5542 543.696 45.8288C544.988 48.1034 546.797 49.8611 549.124 51.1018C551.45 52.2909 554.164 52.8854 557.266 52.8854C561.195 52.8854 564.529 51.929 567.269 50.0162C570.009 48.1034 571.715 45.5703 572.387 42.4168H582.545Z" fill="#171717"/>
<path d="M513.988 59.7093L512.282 43.4249L514.298 37.7642L512.282 32.1809L513.988 15.819H524.379L522.052 37.7642L524.379 59.7093H513.988ZM517.089 37.7642C516.107 42.3651 514.479 46.3975 512.204 49.8611C509.93 53.3248 507.112 56.013 503.752 57.9258C500.443 59.8385 496.747 60.7949 492.663 60.7949C488.372 60.7949 484.572 59.8385 481.264 57.9258C477.955 55.9613 475.37 53.2472 473.509 49.7836C471.648 46.3199 470.718 42.3134 470.718 37.7642C470.718 33.1632 471.648 29.1567 473.509 25.7447C475.37 22.2811 477.955 19.5929 481.264 17.6801C484.572 15.7156 488.372 14.7334 492.663 14.7334C496.747 14.7334 500.443 15.6898 503.752 17.6025C507.112 19.5153 509.93 22.2035 512.204 25.6672C514.53 29.0792 516.159 33.1115 517.089 37.7642ZM480.954 37.7642C480.954 40.7109 481.548 43.3215 482.737 45.5962C483.978 47.8191 485.658 49.5768 487.778 50.8692C489.897 52.1099 492.327 52.7303 495.067 52.7303C497.858 52.7303 500.443 52.1099 502.821 50.8692C505.199 49.5768 507.293 47.8191 509.102 45.5962C510.963 43.3215 512.437 40.7109 513.522 37.7642C512.437 34.8175 510.963 32.2326 509.102 30.0097C507.293 27.7351 505.199 25.9774 502.821 24.7367C500.443 23.4442 497.858 22.798 495.067 22.798C492.327 22.798 489.897 23.4442 487.778 24.7367C485.658 25.9774 483.978 27.7351 482.737 30.0097C481.548 32.2326 480.954 34.8175 480.954 37.7642Z" fill="#171717"/>
<path d="M404.16 1.55078H414.396V59.7093H404.16V1.55078ZM451.462 1.55078H461.698V59.7093H451.462V1.55078ZM409.665 25.8998H456.347V34.895H409.665V25.8998Z" fill="#171717"/>
</svg>
