<svg width="230" height="222" viewBox="0 0 230 222" fill="none" xmlns="http://www.w3.org/2000/svg">
<path opacity="0.5" d="M0.47025 86.064C1.81425 68.4 7.76625 53.232 18.3263 40.56C28.8863 27.696 42.9023 17.904 60.3743 11.184C78.0383 4.27199 97.8143 0.815998 119.702 0.815998C140.63 0.815998 158.87 3.984 174.422 10.32C189.974 16.464 202.07 25.104 210.71 36.24C219.35 47.184 223.67 59.952 223.67 74.544C223.67 85.872 220.406 96.432 213.878 106.224C207.35 116.016 197.366 125.424 183.926 134.448C170.486 143.472 153.206 152.4 132.086 161.232L81.1103 182.544L80.5343 164.4H229.142V222H6.80625V171.312L100.118 121.488C113.558 114.384 123.83 108.528 130.934 103.92C138.038 99.312 142.934 95.184 145.622 91.536C148.502 87.696 149.942 83.568 149.942 79.152C149.942 74.352 148.598 70.32 145.91 67.056C143.414 63.792 139.67 61.296 134.678 59.568C129.686 57.648 123.734 56.688 116.822 56.688C107.222 56.688 99.3503 58.032 93.2063 60.72C87.2543 63.408 82.7423 66.96 79.6703 71.376C76.5983 75.792 74.7743 80.688 74.1983 86.064H0.47025Z" fill="#C026D3"/>
</svg>
