<svg width="232" height="228" viewBox="0 0 232 228" fill="none" xmlns="http://www.w3.org/2000/svg">
<path opacity="0.5" d="M6.13613 78C6.90413 63.984 11.7041 51.216 20.5361 39.696C29.5601 27.984 42.6161 18.576 59.7041 11.472C76.9841 4.368 98.1041 0.815998 123.064 0.815998C143.992 0.815998 162.232 3.40799 177.784 8.59198C193.336 13.776 205.432 20.976 214.072 30.192C222.712 39.408 227.032 50.16 227.032 62.448C227.032 72.048 224.056 80.88 218.104 88.944C212.344 97.008 202.936 103.44 189.88 108.24C176.824 112.848 159.544 115.056 138.04 114.864V108.528C157.624 107.568 174.328 108.72 188.152 111.984C202.168 115.248 212.92 120.72 220.408 128.4C227.896 136.08 231.64 146.16 231.64 158.64C231.64 171.888 227.224 183.696 218.392 194.064C209.56 204.24 196.696 212.304 179.8 218.256C162.904 224.208 142.36 227.184 118.168 227.184C94.7441 227.184 74.2961 224.016 56.8241 217.68C39.3521 211.344 25.7201 202.32 15.9281 190.608C6.32813 178.896 1.24013 165.072 0.664126 149.136H74.3921C75.5441 156.24 79.4801 161.712 86.2001 165.552C93.1121 169.392 103.768 171.312 118.168 171.312C130.072 171.312 139.384 169.776 146.104 166.704C152.824 163.44 156.184 158.832 156.184 152.88C156.184 149.424 155.128 146.544 153.016 144.24C151.096 141.936 147.352 140.304 141.784 139.344C136.408 138.192 128.632 137.616 118.456 137.616H82.7441V89.52H118.456C131.896 89.52 140.92 88.08 145.528 85.2C150.328 82.32 152.728 78.384 152.728 73.392C152.728 67.824 149.752 63.696 143.8 61.008C138.04 58.128 129.784 56.688 119.032 56.688C106.552 56.688 97.1441 58.608 90.8081 62.448C84.6641 66.096 81.0161 71.28 79.8641 78H6.13613Z" fill="#7C3AED"/>
</svg>
